<?xml version="1.0" encoding="utf-8"?>
<!-- Generator: Adobe Illustrator 17.0.0, SVG Export Plug-In . SVG Version: 6.00 Build 0)  -->
<!DOCTYPE svg PUBLIC "-//W3C//DTD SVG 1.1//EN" "http://www.w3.org/Graphics/SVG/1.1/DTD/svg11.dtd">
<svg version="1.1" id="Capa_1" xmlns="http://www.w3.org/2000/svg" xmlns:xlink="http://www.w3.org/1999/xlink" x="0px" y="0px"
	 width="95px" height="95px" viewBox="208.5 208.5 95 95" enable-background="new 208.5 208.5 95 95" xml:space="preserve">
<g>
	<g>
		<g>
			<rect x="216.42" y="259.96" fill="#4BA5FF" width="79.17" height="3.96"/>
		</g>
	</g>
	<g>
		<g>
			<path fill="#4BA5FF" d="M269.85,275.79h-27.71c-1.09,0-1.98,0.89-1.98,1.98v15.83c0,1.09,0.89,1.98,1.98,1.98h27.71
				c1.09,0,1.98-0.89,1.98-1.98v-15.83C271.83,276.68,270.95,275.79,269.85,275.79z M267.88,291.63h-23.75v-11.88h23.75V291.63z"/>
		</g>
	</g>
	<g>
		<g>
			<path fill="#4BA5FF" d="M275.79,291.63h-39.58c-1.09,0-1.98,0.89-1.98,1.98v5.94c0,2.19,1.77,3.96,3.96,3.96h35.63
				c2.19,0,3.96-1.77,3.96-3.96v-5.94C277.77,292.51,276.88,291.63,275.79,291.63z M273.81,299.54h-35.63v-3.96h35.63V299.54z"/>
		</g>
	</g>
	<g>
		<g>
			<path fill="#4BA5FF" d="M297.56,208.5h-37.6v3.96h37.6c1.09,0,1.98,0.89,1.98,1.98v59.38c0,1.09-0.89,1.98-1.98,1.98h-83.13
				c-1.09,0-1.98-0.89-1.98-1.98v-59.38c0-1.09,0.89-1.98,1.98-1.98h13.85v-3.96h-13.85c-3.28,0-5.94,2.66-5.94,5.94v59.38
				c0,3.28,2.66,5.94,5.94,5.94h83.13c3.28,0,5.94-2.66,5.94-5.94v-59.38C303.5,211.16,300.84,208.5,297.56,208.5z"/>
		</g>
	</g>
	<g>
		<g>
			<rect x="230.27" y="299.54" fill="#4BA5FF" width="51.46" height="3.96"/>
		</g>
	</g>
	<g>
		<g>
			<path fill="#4BA5FF" d="M291.63,218.4h-27.71v3.96h25.73V256h3.96v-35.63C293.6,219.28,292.72,218.4,291.63,218.4z"/>
		</g>
	</g>
	<g>
		<g>
			<path fill="#4BA5FF" d="M258.6,244.23c-2.9-0.96-5.75-2.08-8.54-3.33v-0.09c4.83-2.3,7.91-7.16,7.92-12.51v-5.94
				c0-7.65-6.2-13.85-13.85-13.85s-13.85,6.2-13.85,13.85v5.94c0.01,5.35,3.09,10.21,7.92,12.51v0.09
				c-2.79,1.26-5.64,2.37-8.54,3.33c-7.21,2.4-7.29,7.6-7.29,7.82V256h3.96v-3.9c0-0.11,0.2-2.65,4.58-4.11
				c3.47-1.13,6.86-2.49,10.16-4.07c0.67-0.34,1.09-1.02,1.09-1.77v-2.67c0-0.84-0.53-1.59-1.32-1.87c-3.95-1.4-6.59-5.13-6.6-9.32
				v-5.94c0-5.47,4.43-9.9,9.9-9.9s9.9,4.43,9.9,9.9v5.94c-0.01,4.19-2.65,7.92-6.6,9.32c-0.79,0.28-1.32,1.03-1.32,1.87v2.67
				c0,0.75,0.42,1.44,1.09,1.78c3.29,1.57,6.69,2.92,10.16,4.06c4.39,1.46,4.58,4.01,4.58,4.06V256h3.96v-3.96
				C265.9,251.82,265.81,246.63,258.6,244.23z"/>
		</g>
	</g>
	<g>
		<g>
			<path fill="#4BA5FF" d="M283.71,226.31h-13.85c-1.09,0-1.98,0.89-1.98,1.98v7.92c0,1.09,0.89,1.98,1.98,1.98h13.85
				c1.09,0,1.98-0.89,1.98-1.98v-7.92C285.69,227.2,284.8,226.31,283.71,226.31z M281.73,234.23h-9.9v-3.96h9.9V234.23z"/>
		</g>
	</g>
	<g>
		<g>
			<rect x="273.81" y="242.15" fill="#4BA5FF" width="3.96" height="3.96"/>
		</g>
	</g>
	<g>
		<g>
			<rect x="281.73" y="242.15" fill="#4BA5FF" width="3.96" height="3.96"/>
		</g>
	</g>
	<g>
		<g>
			<rect x="273.81" y="250.06" fill="#4BA5FF" width="11.88" height="3.96"/>
		</g>
	</g>
</g>
</svg>
