<?xml version="1.0" encoding="utf-8"?>
<!-- Generator: Adobe Illustrator 17.0.0, SVG Export Plug-In . SVG Version: 6.00 Build 0)  -->
<!DOCTYPE svg PUBLIC "-//W3C//DTD SVG 1.1//EN" "http://www.w3.org/Graphics/SVG/1.1/DTD/svg11.dtd">
<svg version="1.1" id="Camada_1" xmlns="http://www.w3.org/2000/svg" xmlns:xlink="http://www.w3.org/1999/xlink" x="0px" y="0px"
	 width="80px" height="80px" viewBox="0 0 80 80" enable-background="new 0 0 80 80" xml:space="preserve">
<g>
	<g>
		<g>
			<path fill="#4CA5FF" d="M40,0C28.37,0,18.91,9.46,18.91,21.09S28.37,42.19,40,42.19s21.09-9.46,21.09-21.09S51.63,0,40,0z
				 M40,37.5c-9.05,0-16.41-7.36-16.41-16.41S30.95,4.69,40,4.69s16.41,7.36,16.41,16.41S49.05,37.5,40,37.5z"/>
		</g>
	</g>
	<g>
		<g>
			<path fill="#4CA5FF" d="M66.24,55.97c-5.78-5.86-13.43-9.09-21.56-9.09h-9.38c-8.13,0-15.78,3.23-21.56,9.09
				C8.01,61.8,4.84,69.51,4.84,77.66c0,1.29,1.05,2.34,2.34,2.34h65.63c1.29,0,2.34-1.05,2.34-2.34
				C75.16,69.51,71.99,61.8,66.24,55.97z M9.63,75.31c1.17-13.29,12.24-23.75,25.68-23.75h9.38c13.44,0,24.5,10.46,25.68,23.75H9.63
				z"/>
		</g>
	</g>
</g>
</svg>
