<?xml version="1.0" encoding="utf-8"?>
<!-- Generator: Adobe Illustrator 17.0.0, SVG Export Plug-In . SVG Version: 6.00 Build 0)  -->
<!DOCTYPE svg PUBLIC "-//W3C//DTD SVG 1.1//EN" "http://www.w3.org/Graphics/SVG/1.1/DTD/svg11.dtd">
<svg version="1.1" id="Capa_1" xmlns="http://www.w3.org/2000/svg" xmlns:xlink="http://www.w3.org/1999/xlink" x="0px" y="0px"
	 width="95px" height="95px" viewBox="208.5 208.5 95 95" enable-background="new 208.5 208.5 95 95" xml:space="preserve">
<g>
	<g>
		<g>
			<path fill="#4BA5FF" d="M244.87,219.63c-1.02,0-1.86,0.83-1.86,1.86s0.83,1.86,1.86,1.86s1.86-0.83,1.86-1.86
				S245.89,219.63,244.87,219.63z"/>
		</g>
	</g>
	<g>
		<g>
			<path fill="#4BA5FF" d="M256,234.48c-1.02,0-1.86-0.83-1.86-1.86s0.83-1.86,1.86-1.86c0.66,0,1.35,0.34,2.01,0.97
				c0.74,0.71,1.91,0.69,2.62-0.04c0.71-0.74,0.69-1.91-0.04-2.62c-0.94-0.91-1.88-1.43-2.73-1.71v-2.16c0-1.02-0.83-1.86-1.86-1.86
				s-1.86,0.83-1.86,1.86v2.17c-2.16,0.77-3.71,2.83-3.71,5.25c0,3.07,2.5,5.57,5.57,5.57c1.02,0,1.86,0.83,1.86,1.86
				s-0.83,1.86-1.86,1.86c-0.79,0-1.65-0.5-2.41-1.4c-0.66-0.78-1.83-0.89-2.61-0.23c-0.78,0.66-0.89,1.83-0.23,2.61
				c0.99,1.18,2.16,2,3.39,2.42v2.17c0,1.02,0.83,1.86,1.86,1.86s1.86-0.83,1.86-1.86v-2.17c2.16-0.77,3.71-2.83,3.71-5.25
				C261.57,236.97,259.07,234.48,256,234.48z"/>
		</g>
	</g>
	<g>
		<g>
			<path fill="#4BA5FF" d="M296.08,235.59c-4.09,0-7.42,3.33-7.42,7.42v13.22c-2.46-0.63-5.18,0.02-7.1,1.94l-12.44,12.44
				c-1.75,1.75-2.72,4.08-2.72,6.56v10.92h-1.86c-1.02,0-1.86,0.83-1.86,1.86v11.69c0,1.02,0.83,1.86,1.86,1.86h25.98
				c1.02,0,1.86-0.83,1.86-1.86v-11.69c0-1.02-0.83-1.86-1.86-1.86h-1.86v-0.88c0-0.49,0.2-0.97,0.54-1.31l11.58-11.58
				c1.75-1.75,2.72-4.08,2.72-6.56v-24.76C303.5,238.92,300.17,235.59,296.08,235.59z M288.66,299.79h-22.27v-7.98h22.27V299.79z
				 M299.79,267.77c0,1.49-0.58,2.89-1.63,3.94l-11.58,11.58c-1.04,1.04-1.63,2.47-1.63,3.94v0.88H270.1v-10.92
				c0-1.49,0.58-2.89,1.63-3.94l12.44-12.44c1.39-1.39,3.63-1.46,5.09-0.14c0.01,0.01,0.02,0.02,0.03,0.03
				c0.04,0.04,0.08,0.08,0.12,0.12c0.7,0.7,1.09,1.63,1.09,2.62s-0.39,1.92-1.09,2.62l-9.22,9.22c-0.72,0.72-0.72,1.9,0,2.62
				c0.72,0.72,1.9,0.72,2.62,0l9.22-9.22c1.4-1.4,2.17-3.27,2.17-5.25c0-1.83-0.66-3.55-1.86-4.91v-15.5c0-2.05,1.66-3.71,3.71-3.71
				s3.71,1.66,3.71,3.71V267.77z"/>
		</g>
	</g>
	<g>
		<g>
			<path fill="#4BA5FF" d="M247.46,288.1h-1.86v-10.92c0-2.48-0.97-4.81-2.72-6.56l-12.44-12.44c-1.92-1.92-4.64-2.57-7.1-1.94
				v-13.22c0-4.09-3.33-7.42-7.42-7.42s-7.42,3.33-7.42,7.42v24.76c0,2.48,0.97,4.81,2.72,6.56l11.58,11.58
				c0.35,0.35,0.54,0.82,0.54,1.31v0.88h-1.86c-1.02,0-1.86,0.83-1.86,1.86v11.69c0,1.02,0.83,1.86,1.86,1.86h25.98
				c1.02,0,1.86-0.83,1.86-1.86v-11.69C249.32,288.93,248.49,288.1,247.46,288.1z M213.84,271.71c-1.05-1.05-1.63-2.45-1.63-3.94
				v-24.76c0-2.05,1.66-3.71,3.71-3.71s3.71,1.66,3.71,3.71v15.5c-1.2,1.36-1.86,3.08-1.86,4.91c0,1.98,0.77,3.85,2.17,5.25
				l9.28,9.28c0.72,0.72,1.9,0.72,2.62,0c0.72-0.72,0.72-1.9,0-2.62l-9.28-9.28c-0.7-0.7-1.09-1.63-1.09-2.62s0.39-1.92,1.09-2.62
				c0.04-0.04,0.08-0.08,0.12-0.12l0.03-0.03c1.46-1.31,3.7-1.25,5.09,0.14l12.45,12.45c1.05,1.05,1.63,2.45,1.63,3.94v10.92h-14.84
				v-0.88c0-1.46-0.59-2.9-1.63-3.94L213.84,271.71z M245.61,299.79h-22.27v-7.98h22.27V299.79z"/>
		</g>
	</g>
	<g>
		<g>
			<path fill="#4BA5FF" d="M256,208.5c-15.35,0-27.83,12.49-27.83,27.83s12.49,27.83,27.83,27.83s27.83-12.49,27.83-27.83
				S271.35,208.5,256,208.5z M256,260.45c-13.3,0-24.12-10.82-24.12-24.12s10.82-24.12,24.12-24.12c13.3,0,24.12,10.82,24.12,24.12
				S269.3,260.45,256,260.45z"/>
		</g>
	</g>
	<g>
		<g>
			<path fill="#4BA5FF" d="M268.81,220.44c-4.83-3.9-11.15-5.37-17.33-4.03c-1,0.22-1.64,1.2-1.42,2.2c0.22,1,1.2,1.64,2.2,1.42
				c5.09-1.1,10.27,0.1,14.22,3.29c3.95,3.19,6.22,7.93,6.22,13c0,9.21-7.49,16.7-16.7,16.7s-16.7-7.49-16.7-16.7
				c0-2.75,0.68-5.48,1.97-7.88c0.48-0.9,0.15-2.03-0.76-2.51c-0.9-0.48-2.03-0.15-2.51,0.76c-1.58,2.95-2.42,6.28-2.42,9.64
				c0,11.25,9.16,20.41,20.41,20.41c11.25,0,20.41-9.16,20.41-20.41C276.41,230.13,273.64,224.34,268.81,220.44z"/>
		</g>
	</g>
</g>
</svg>
