<?xml version="1.0" encoding="utf-8"?>
<!-- Generator: Adobe Illustrator 17.0.0, SVG Export Plug-In . SVG Version: 6.00 Build 0)  -->
<!DOCTYPE svg PUBLIC "-//W3C//DTD SVG 1.1//EN" "http://www.w3.org/Graphics/SVG/1.1/DTD/svg11.dtd">
<svg version="1.1" id="Camada_1" xmlns="http://www.w3.org/2000/svg" xmlns:xlink="http://www.w3.org/1999/xlink" x="0px" y="0px"
	 width="95px" height="95px" viewBox="0 0 95 95" enable-background="new 0 0 95 95" xml:space="preserve">
<g>
	<path fill="#5391CB" d="M91.02,42.75H85.5v-9.92c0-2.39-1.94-4.33-4.33-4.33H76v-3.82l-0.78-0.79L63.66,12.34L51.32,0H12.67v17.42
		H4.33C1.94,17.42,0,19.35,0,21.75v69.16h0.01c-0.01,0.9,0.27,1.76,0.83,2.5C1.61,94.42,2.79,95,4.06,95h70.87
		c1.83,0,3.45-1.24,3.88-2.87L95,47.74v-0.28C95,44.73,93.33,42.75,91.02,42.75L91.02,42.75z M81.17,31.67
		c0.64,0,1.16,0.52,1.16,1.16v9.92H76V31.67H81.17z M52.25,5.41L70.6,23.75H52.25V5.41z M15.83,3.17h33.25v23.75h23.75v15.83H20.15
		c-0.22,0-0.45,0.02-0.67,0.06c-1.54,0.26-2.83,1.38-3.21,2.81l-0.45,1.22V3.17z M3.17,21.75c0-0.64,0.52-1.16,1.16-1.16h8.34v34.89
		l-9.5,25.91V21.75z M75.79,91.17c-0.11,0.39-0.46,0.66-0.87,0.66H4.06c-0.38,0-0.6-0.22-0.71-0.35c-0.1-0.12-0.25-0.4-0.19-0.64
		l9.51-26.08v0.01l6.59-18.05l0.04-0.13c0.1-0.39,0.46-0.66,0.86-0.66h70.87c0.6,0,0.76,0.87,0.79,1.29L75.79,91.17z M75.79,91.17"
		/>
	<path fill="#5391CB" d="M25.33,26.92h15.83c0.87,0,1.58-0.71,1.58-1.58c0-0.87-0.71-1.58-1.58-1.58H25.33
		c-0.87,0-1.58,0.71-1.58,1.58C23.75,26.21,24.46,26.92,25.33,26.92L25.33,26.92z M25.33,26.92"/>
	<path fill="#5391CB" d="M25.33,15.83h15.83c0.87,0,1.58-0.71,1.58-1.58c0-0.87-0.71-1.58-1.58-1.58H25.33
		c-0.87,0-1.58,0.71-1.58,1.58C23.75,15.12,24.46,15.83,25.33,15.83L25.33,15.83z M25.33,15.83"/>
	<path fill="#5391CB" d="M25.33,38h38c0.87,0,1.58-0.71,1.58-1.58c0-0.87-0.71-1.58-1.58-1.58h-38c-0.87,0-1.58,0.71-1.58,1.58
		C23.75,37.29,24.46,38,25.33,38L25.33,38z M25.33,38"/>
</g>
</svg>
