<?xml version="1.0" encoding="utf-8"?>
<!-- Generator: Adobe Illustrator 17.0.0, SVG Export Plug-In . SVG Version: 6.00 Build 0)  -->
<!DOCTYPE svg PUBLIC "-//W3C//DTD SVG 1.1//EN" "http://www.w3.org/Graphics/SVG/1.1/DTD/svg11.dtd">
<svg version="1.1" id="Capa_1" xmlns="http://www.w3.org/2000/svg" xmlns:xlink="http://www.w3.org/1999/xlink" x="0px" y="0px"
	 width="95px" height="95px" viewBox="208.5 208.5 95 95" enable-background="new 208.5 208.5 95 95" xml:space="preserve">
<g>
	<g>
		<path fill="#4BA5FF" d="M284.15,243.88v-9.87c0-14.07-12.63-25.51-28.15-25.51s-28.15,11.44-28.15,25.51v9.87
			c-5.98,1.03-10.56,6.25-10.56,12.52v34.38c0,7.01,5.71,12.72,12.72,12.72h51.97c7.01,0,12.72-5.71,12.72-12.72V256.4
			C294.7,250.13,290.13,244.91,284.15,243.88z M231.37,234.01c0-12.13,11.05-21.99,24.63-21.99s24.63,9.86,24.63,21.99v9.68h-49.26
			V234.01z M291.19,290.78c0,5.07-4.13,9.2-9.2,9.2h-51.97c-5.07,0-9.2-4.13-9.2-9.2V256.4c0-5.07,4.13-9.2,9.2-9.2h51.97
			c5.07,0,9.2,4.13,9.2,9.2V290.78z"/>
		<path fill="#4BA5FF" d="M256,257.76c-3.88,0-7.04,3.16-7.04,7.04v10.56c0,3.88,3.16,7.04,7.04,7.04s7.04-3.16,7.04-7.04V264.8
			C263.04,260.92,259.88,257.76,256,257.76z M259.52,275.35c0,1.94-1.58,3.52-3.52,3.52s-3.52-1.58-3.52-3.52V264.8
			c0-1.94,1.58-3.52,3.52-3.52s3.52,1.58,3.52,3.52V275.35z"/>
	</g>
</g>
</svg>
