<?xml version="1.0" encoding="utf-8"?>
<!-- Generator: Adobe Illustrator 17.0.0, SVG Export Plug-In . SVG Version: 6.00 Build 0)  -->
<!DOCTYPE svg PUBLIC "-//W3C//DTD SVG 1.1//EN" "http://www.w3.org/Graphics/SVG/1.1/DTD/svg11.dtd">
<svg version="1.1" id="Camada_1" xmlns="http://www.w3.org/2000/svg" xmlns:xlink="http://www.w3.org/1999/xlink" x="0px" y="0px"
	 width="95px" height="95px" viewBox="0 0 95 95" enable-background="new 0 0 95 95" xml:space="preserve">
<g>
	<path fill="#5391CB" d="M93.42,0L93.42,0H1.58C0.71,0,0,0.71,0,1.58v0v31.67h3.17V3.17h88.67V38H36.42v3.17h57
		c0.87,0,1.58-0.71,1.58-1.58v0v-38C95,0.71,94.29,0,93.42,0L93.42,0z M93.42,0"/>
	<rect x="52.25" y="7.92" fill="#5391CB" width="31.67" height="3.17"/>
	<rect x="57" y="17.42" fill="#5391CB" width="31.67" height="3.17"/>
	<rect x="50.67" y="26.92" fill="#5391CB" width="31.67" height="3.17"/>
	<path fill="#5391CB" d="M50.54,13.65c-1.08-2.61-4.08-3.84-6.68-2.76c-0.04,0.02-0.09,0.04-0.13,0.06l-12.84,6.66
		c0.51-1.05,0.77-2.2,0.78-3.36c0-4.37-3.55-7.92-7.92-7.92s-7.92,3.55-7.92,7.92c0.01,1.72,0.58,3.39,1.62,4.75h-0.07
		c-4.49,0.03-8.51,2.82-10.09,7.03L3.07,40.6c-1.01,2.61,0.3,5.55,2.91,6.56c1.19,0.46,2.51,0.45,3.7-0.02
		c1.36-0.55,2.42-1.66,2.91-3.05l1.66-5.27v22.92c-1.36-1.05-3.03-1.62-4.75-1.62C5.13,60.1,1.59,63.64,1.58,68
		c0,2.14,0.86,4.19,2.39,5.68C1.54,74.92,0.01,77.42,0,80.15v13.27C0,94.29,0.71,95,1.58,95h0h15.83c0.87,0,1.58-0.71,1.58-1.58v0
		V80.15c-0.01-2.25-1.05-4.36-2.83-5.73h11.98c-1.78,1.37-2.82,3.49-2.83,5.73v13.27c0,0.87,0.71,1.58,1.58,1.58c0,0,0,0,0,0h15.83
		c0.87,0,1.58-0.71,1.58-1.58v0V80.15c-0.01-2.73-1.54-5.23-3.98-6.47c3.13-3.05,3.19-8.06,0.14-11.19
		c-1.88-1.93-4.61-2.76-7.24-2.23V27.88l14.54-7.55C50.39,19.25,51.62,16.26,50.54,13.65L50.54,13.65z M23.75,9.5
		c2.62,0,4.75,2.13,4.75,4.75S26.37,19,23.75,19C21.13,19,19,16.87,19,14.25C19,11.63,21.13,9.5,23.75,9.5L23.75,9.5z M9.5,63.27
		c2.62,0,4.75,2.13,4.75,4.75c0,2.62-2.13,4.75-4.75,4.75c-2.62,0-4.75-2.13-4.75-4.75C4.75,65.4,6.88,63.28,9.5,63.27L9.5,63.27z
		 M15.83,91.83H3.17V80.15c0-2.29,1.86-4.15,4.15-4.15h4.37c2.29,0,4.15,1.86,4.15,4.15V91.83z M41.17,80.15v11.68H28.5V80.15
		c0-2.29,1.86-4.15,4.15-4.15h4.37C39.31,76,41.16,77.86,41.17,80.15L41.17,80.15z M34.83,63.27c2.62,0,4.75,2.13,4.75,4.75
		c0,2.62-2.13,4.75-4.75,4.75c-2.62,0-4.75-2.13-4.75-4.75C30.08,65.4,32.21,63.27,34.83,63.27L34.83,63.27z M47.64,16.29
		c-0.21,0.54-0.65,0.97-1.2,1.17l-15.51,8.05c-0.52,0.27-0.85,0.81-0.85,1.41v34.81c-2.97,2.19-3.99,6.16-2.46,9.52h-2.29V44.33
		h-3.17v26.92h-5.45c0.45-1,0.69-2.07,0.7-3.17h0.01V28.5c0-0.87-0.71-1.58-1.58-1.58c-0.69,0-1.3,0.45-1.51,1.11L9.59,43.07
		c-0.36,0.99-1.45,1.5-2.44,1.14c-0.07-0.03-0.14-0.05-0.2-0.09c-0.91-0.47-1.3-1.57-0.88-2.51l4.23-14.57
		c1.14-2.93,3.95-4.86,7.09-4.87H28.6c0.25,0,0.5-0.06,0.73-0.18l15.74-8.17c0.94-0.39,2.03,0.01,2.49,0.92
		C47.8,15.23,47.83,15.79,47.64,16.29L47.64,16.29z M47.64,16.29"/>
	<path fill="#5391CB" d="M65.69,73.68c3.13-3.05,3.2-8.06,0.15-11.2c-3.05-3.13-8.06-3.2-11.19-0.15c-3.13,3.05-3.2,8.06-0.15,11.19
		c0.05,0.05,0.1,0.1,0.15,0.15c-2.43,1.24-3.97,3.74-3.98,6.47v13.27c0,0.87,0.71,1.58,1.58,1.58h0h15.83
		c0.87,0,1.58-0.71,1.58-1.58v0V80.15C69.66,77.42,68.12,74.92,65.69,73.68L65.69,73.68z M60.17,63.27c2.62,0,4.75,2.13,4.75,4.75
		c0,2.62-2.13,4.75-4.75,4.75s-4.75-2.13-4.75-4.75C55.42,65.4,57.54,63.28,60.17,63.27L60.17,63.27z M66.5,91.83H53.83V80.15
		c0-2.29,1.86-4.15,4.15-4.15h4.37c2.29,0,4.15,1.86,4.15,4.15V91.83z M66.5,91.83"/>
	<path fill="#5391CB" d="M91.02,73.68c3.13-3.05,3.2-8.06,0.15-11.2c-3.05-3.13-8.06-3.2-11.19-0.15c-3.13,3.05-3.2,8.06-0.15,11.19
		c0.05,0.05,0.1,0.1,0.15,0.15c-2.43,1.24-3.97,3.74-3.98,6.47v13.27c0,0.87,0.71,1.58,1.58,1.58h0h15.83
		c0.87,0,1.58-0.71,1.58-1.58v0V80.15C94.99,77.42,93.46,74.92,91.02,73.68L91.02,73.68z M85.5,63.27c2.62,0,4.75,2.13,4.75,4.75
		c0,2.62-2.13,4.75-4.75,4.75c-2.62,0-4.75-2.13-4.75-4.75C80.75,65.4,82.88,63.28,85.5,63.27L85.5,63.27z M91.83,91.83H79.17V80.15
		c0-2.29,1.86-4.15,4.15-4.15h4.37c2.29,0,4.15,1.86,4.15,4.15V91.83z M91.83,91.83"/>
</g>
</svg>
