<?xml version="1.0" encoding="utf-8"?>
<!-- Generator: Adobe Illustrator 17.0.0, SVG Export Plug-In . SVG Version: 6.00 Build 0)  -->
<!DOCTYPE svg PUBLIC "-//W3C//DTD SVG 1.1//EN" "http://www.w3.org/Graphics/SVG/1.1/DTD/svg11.dtd">
<svg version="1.1" id="Camada_1" xmlns="http://www.w3.org/2000/svg" xmlns:xlink="http://www.w3.org/1999/xlink" x="0px" y="0px"
	 width="120px" height="120px" viewBox="0 0 120 120" enable-background="new 0 0 120 120" xml:space="preserve">
<g>
	<path fill="#ECD564" d="M68.06,56.75c0.35,0.69,1.06,1.09,1.79,1.09c0.3,0,0.62-0.07,0.91-0.22c0.12-0.06,11.89-6.04,17.7-7.87
		c1.05-0.33,1.64-1.46,1.3-2.51c-0.33-1.05-1.45-1.64-2.51-1.31c-6.12,1.93-17.81,7.87-18.3,8.13
		C67.95,54.56,67.56,55.77,68.06,56.75L68.06,56.75z M68.06,56.75"/>
	<path fill="#ECD564" d="M69.85,33.85c0.3,0,0.62-0.07,0.91-0.22c0.12-0.06,11.89-6.04,17.7-7.87c1.05-0.33,1.64-1.46,1.3-2.51
		c-0.33-1.05-1.45-1.64-2.51-1.31c-6.12,1.93-17.81,7.87-18.3,8.13c-0.98,0.5-1.38,1.7-0.88,2.69
		C68.41,33.45,69.12,33.85,69.85,33.85L69.85,33.85z M69.85,33.85"/>
	<path fill="#ECD564" d="M117.84,29.85c-1.11,0-2,0.9-2,2v78c0,3.31-2.69,6-6,6h-48v-4.6c2.92-1.02,10.51-3.4,18-3.4
		c17.42,0,29.25,3.86,29.37,3.9c0.6,0.2,1.27,0.1,1.8-0.28c0.52-0.38,0.83-0.98,0.83-1.62v-88c0-0.94-0.65-1.75-1.57-1.95
		c0,0-1.57-0.35-4.25-0.84c-1.08-0.2-2.13,0.52-2.33,1.6c-0.2,1.09,0.52,2.13,1.6,2.33c1.02,0.19,1.88,0.35,2.54,0.49v83.72
		c-4.53-1.19-14.6-3.34-28-3.34c-8.71,0-17.27,2.86-19.92,3.83c-2.35-1.04-9.47-3.83-18.08-3.83c-13.78,0-25.12,2.27-30,3.43V23.39
		c3.99-0.98,15.79-3.55,30-3.55c7.29,0,13.54,2.27,16,3.3v78.7c0,0.72,0.39,1.39,1.01,1.74c0.63,0.36,1.4,0.35,2.02-0.03
		c0.2-0.12,20.01-11.95,37.6-17.82c0.82-0.27,1.37-1.04,1.37-1.9v-82c0-0.66-0.32-1.27-0.86-1.64c-0.54-0.37-1.22-0.46-1.84-0.23
		c-16,6-32.19,16.08-32.36,16.18c-0.94,0.59-1.22,1.82-0.64,2.76c0.58,0.94,1.82,1.22,2.76,0.64c0.15-0.09,14.23-8.86,28.94-14.77
		v77.64c-13.65,4.74-27.91,12.49-34,15.96V21.85c0-0.76-0.43-1.45-1.11-1.79c-0.34-0.17-8.54-4.21-18.89-4.21
		c-18.07,0-31.97,3.91-32.55,4.08c-0.86,0.24-1.45,1.03-1.45,1.92v88c0,0.63,0.3,1.22,0.79,1.6c0.35,0.27,0.78,0.4,1.21,0.4
		c0.18,0,0.37-0.03,0.55-0.08c0.14-0.04,13.97-3.92,31.45-3.92c7.31,0,13.56,2.28,16,3.3v4.7h-48c-3.31,0-6-2.69-6-6v-78
		c0-1.1-0.9-2-2-2c-1.1,0-2,0.9-2,2v78c0,5.51,4.49,10,10,10h100c5.51,0,10-4.49,10-10v-78C119.84,30.74,118.95,29.85,117.84,29.85
		L117.84,29.85z M117.84,29.85"/>
	<path fill="#ECD564" d="M68.06,44.75c0.35,0.69,1.06,1.09,1.79,1.09c0.3,0,0.62-0.07,0.91-0.22c0.12-0.06,11.89-6.04,17.7-7.87
		c1.05-0.33,1.64-1.46,1.3-2.51c-0.33-1.05-1.45-1.64-2.51-1.31c-6.12,1.93-17.81,7.87-18.3,8.13
		C67.95,42.56,67.56,43.77,68.06,44.75L68.06,44.75z M68.06,44.75"/>
	<path fill="#ECD564" d="M68.06,68.75c0.35,0.69,1.06,1.09,1.79,1.09c0.3,0,0.62-0.07,0.91-0.22c0.12-0.06,11.89-6.04,17.7-7.87
		c1.05-0.33,1.64-1.46,1.3-2.51c-0.33-1.05-1.45-1.64-2.51-1.31c-6.12,1.93-17.81,7.87-18.3,8.13
		C67.95,66.56,67.56,67.77,68.06,68.75L68.06,68.75z M68.06,68.75"/>
	<path fill="#ECD564" d="M48.3,36.96c-12.35-2.9-26.38,0.79-26.97,0.95c-1.07,0.29-1.7,1.38-1.41,2.45
		c0.24,0.89,1.05,1.48,1.93,1.48c0.17,0,0.35-0.02,0.52-0.07c0.13-0.04,13.65-3.59,25.03-0.92c1.07,0.25,2.15-0.42,2.4-1.49
		C50.04,38.29,49.38,37.21,48.3,36.96L48.3,36.96z M48.3,36.96"/>
	<path fill="#ECD564" d="M48.3,48.96c-12.35-2.9-26.38,0.79-26.97,0.95c-1.07,0.29-1.7,1.38-1.41,2.45
		c0.24,0.89,1.05,1.48,1.93,1.48c0.17,0,0.35-0.02,0.52-0.07c0.13-0.04,13.65-3.59,25.03-0.92c1.07,0.25,2.15-0.42,2.4-1.49
		C50.04,50.29,49.38,49.21,48.3,48.96L48.3,48.96z M48.3,48.96"/>
	<path fill="#ECD564" d="M68.06,80.75c0.35,0.69,1.06,1.09,1.79,1.09c0.3,0,0.62-0.07,0.91-0.22c0.12-0.06,11.89-6.04,17.7-7.87
		c1.05-0.33,1.64-1.46,1.3-2.51c-0.33-1.05-1.45-1.64-2.51-1.31c-6.12,1.93-17.81,7.87-18.3,8.13
		C67.95,78.56,67.56,79.77,68.06,80.75L68.06,80.75z M68.06,80.75"/>
	<path fill="#ECD564" d="M48.3,60.96c-12.35-2.9-26.38,0.79-26.97,0.95c-1.07,0.29-1.7,1.38-1.41,2.45
		c0.24,0.89,1.05,1.48,1.93,1.48c0.17,0,0.35-0.02,0.52-0.07c0.13-0.04,13.65-3.59,25.03-0.92c1.07,0.25,2.15-0.42,2.4-1.49
		C50.04,62.29,49.38,61.21,48.3,60.96L48.3,60.96z M48.3,60.96"/>
	<path fill="#ECD564" d="M48.3,84.96c-12.35-2.9-26.38,0.79-26.97,0.95c-1.07,0.29-1.7,1.38-1.41,2.45
		c0.24,0.89,1.05,1.48,1.93,1.48c0.17,0,0.35-0.02,0.52-0.07c0.13-0.04,13.65-3.59,25.03-0.92c1.07,0.25,2.15-0.42,2.4-1.49
		C50.04,86.29,49.38,85.21,48.3,84.96L48.3,84.96z M48.3,84.96"/>
	<path fill="#ECD564" d="M48.3,72.96c-12.35-2.9-26.38,0.79-26.97,0.95c-1.07,0.29-1.7,1.38-1.41,2.45
		c0.24,0.89,1.05,1.48,1.93,1.48c0.17,0,0.35-0.02,0.52-0.07c0.13-0.04,13.65-3.59,25.03-0.92c1.07,0.25,2.15-0.42,2.4-1.49
		C50.04,74.29,49.38,73.21,48.3,72.96L48.3,72.96z M48.3,72.96"/>
</g>
</svg>
