<?xml version="1.0" encoding="utf-8"?>
<!-- Generator: Adobe Illustrator 17.0.0, SVG Export Plug-In . SVG Version: 6.00 Build 0)  -->
<!DOCTYPE svg PUBLIC "-//W3C//DTD SVG 1.1//EN" "http://www.w3.org/Graphics/SVG/1.1/DTD/svg11.dtd">
<svg version="1.1" id="Camada_1" xmlns="http://www.w3.org/2000/svg" xmlns:xlink="http://www.w3.org/1999/xlink" x="0px" y="0px"
	 width="120px" height="120px" viewBox="0 0 120 120" enable-background="new 0 0 120 120" xml:space="preserve">
<g>
	<path fill="#ECD564" d="M84.48,100.06c-1.07-0.27-2.16,0.38-2.42,1.45l-2,8c-0.27,1.07,0.38,2.16,1.46,2.43
		c0.16,0.04,0.33,0.06,0.49,0.06c0.9,0,1.71-0.61,1.94-1.51l2-8C86.21,101.41,85.56,100.33,84.48,100.06L84.48,100.06z
		 M84.48,100.06"/>
	<path fill="#ECD564" d="M60,60c0.26,0,0.52-0.05,0.76-0.15l22-9.1c1.02-0.42,1.5-1.59,1.08-2.61c-0.42-1.02-1.6-1.5-2.61-1.08
		L60,55.83L4,32.66V32c0-1.1-0.9-2-2-2c-1.1,0-2,0.9-2,2v2c0,0.81,0.49,1.54,1.24,1.85l58,24C59.48,59.95,59.74,60,60,60L60,60z
		 M60,60"/>
	<path fill="#ECD564" d="M83.79,80.49c-0.49-0.99-1.68-1.4-2.68-0.91c-3.8,1.88-10.14,4.06-19.11,4.36V66c0-1.1-0.9-2-2-2
		c-1.1,0-2,0.9-2,2v17.92c-24.83-0.79-32.85-15.84-34-18.34V52c0-1.1-0.9-2-2-2c-1.1,0-2,0.9-2,2v14c0,0.25,0.05,0.51,0.14,0.74
		C20.49,67.61,29,88,60,88c10.83,0,18.43-2.63,22.89-4.83C83.88,82.68,84.28,81.48,83.79,80.49L83.79,80.49z M83.79,80.49"/>
	<path fill="#ECD564" d="M90,102c-1.11,0-2,0.9-2,2v6c0,1.1,0.89,2,2,2s2-0.9,2-2v-6C92,102.9,91.11,102,90,102L90,102z M90,102"/>
	<path fill="#ECD564" d="M118,30c-1.11,0-2,0.9-2,2v0.66l-24,9.88v-3.61l26.76-11.08c0.75-0.31,1.24-1.04,1.24-1.85
		c0-0.81-0.49-1.54-1.23-1.85l-58-24c-0.49-0.2-1.04-0.2-1.53,0l-58,24C0.49,24.46,0,25.19,0,26c0,0.81,0.49,1.54,1.24,1.85l58,24
		C59.48,51.95,59.74,52,60,52c0.26,0,0.52-0.05,0.76-0.15l20.97-8.68c1.02-0.42,1.51-1.59,1.08-2.61c-0.42-1.02-1.59-1.5-2.61-1.08
		L60,47.84L7.23,26L60,4.16L112.77,26l-22.96,9.5l-21.99-8.21C67.93,26.87,68,26.44,68,26c0-3.36-3.51-6-8-6c-4.49,0-8,2.64-8,6
		s3.51,6,8,6c2,0,3.79-0.55,5.18-1.43L88,39.1v49.27c-2.32,0.83-4,3.03-4,5.63c0,3.31,2.69,6,6,6c3.31,0,6-2.69,6-6
		c0-2.6-1.68-4.8-4-5.63V77.01c5.74-4.33,7.8-10.1,7.89-10.36C99.96,66.44,100,66.22,100,66V52c0-1.1-0.89-2-2-2c-1.11,0-2,0.9-2,2
		v13.63c-0.35,0.85-1.55,3.46-4,6.04V46.86l26.76-11.01c0.75-0.31,1.24-1.04,1.24-1.85v-2C120,30.9,119.11,30,118,30L118,30z M60,28
		c-2.44,0-4-1.18-4-2c0-0.82,1.56-2,4-2c2.44,0,4,1.18,4,2C64,26.81,62.44,28,60,28L60,28z M90,96c-1.1,0-2-0.9-2-2c0-1.1,0.9-2,2-2
		s2,0.9,2,2C92,95.1,91.1,96,90,96L90,96z M90,96"/>
	<path fill="#ECD564" d="M97.94,101.51c-0.27-1.07-1.36-1.72-2.42-1.45c-1.07,0.27-1.72,1.35-1.46,2.43l2,8
		C96.29,111.39,97.1,112,98,112c0.16,0,0.32-0.02,0.49-0.06c1.07-0.27,1.72-1.35,1.46-2.43L97.94,101.51z M97.94,101.51"/>
</g>
</svg>
