<?xml version="1.0" encoding="utf-8"?>
<!-- Generator: Adobe Illustrator 17.0.0, SVG Export Plug-In . SVG Version: 6.00 Build 0)  -->
<!DOCTYPE svg PUBLIC "-//W3C//DTD SVG 1.1//EN" "http://www.w3.org/Graphics/SVG/1.1/DTD/svg11.dtd">
<svg version="1.1" id="Camada_1" xmlns="http://www.w3.org/2000/svg" xmlns:xlink="http://www.w3.org/1999/xlink" x="0px" y="0px"
	 width="120px" height="120px" viewBox="0 0 120 120" enable-background="new 0 0 120 120" xml:space="preserve">
<g>
	<path fill="#ECD564" d="M72.86,41.97c0,1.1,0.96,2,2.14,2h21.43c1.18,0,2.14-0.9,2.14-2c0-1.11-0.96-2-2.14-2H75
		C73.82,39.97,72.86,40.87,72.86,41.97L72.86,41.97z M72.86,41.97"/>
	<path fill="#ECD564" d="M85.71,53.98c0,1.1,0.96,2,2.14,2h12.86c1.18,0,2.14-0.9,2.14-2c0-1.1-0.96-2-2.14-2H87.86
		C86.67,51.97,85.71,52.87,85.71,53.98L85.71,53.98z M85.71,53.98"/>
	<path fill="#ECD564" d="M83.57,31.97c1.18,0,2.14-0.9,2.14-2c0-1.1-0.96-2-2.14-2h-4.29c-1.18,0-2.14,0.9-2.14,2
		c0,1.11,0.96,2,2.14,2H83.57z M83.57,31.97"/>
	<path fill="#ECD564" d="M57.86,51.97c-1.18,0-2.14,0.9-2.14,2c0,1.1,0.96,2,2.14,2h21.43c1.18,0,2.14-0.9,2.14-2
		c0-1.1-0.96-2-2.14-2H57.86z M57.86,51.97"/>
	<path fill="#ECD564" d="M68.57,108H27.86c-3.54,0-6.43-2.69-6.43-6V9.96c0-1.1-0.96-2-2.14-2c-5.91,0-10.71,4.49-10.71,10
		c0,1.1,0.96,2,2.14,2s2.14-0.9,2.14-2c0-2.61,1.79-4.83,4.29-5.66v89.69c0,5.52,4.81,10,10.71,10h40.71c1.18,0,2.14-0.9,2.14-2
		C70.71,108.89,69.76,108,68.57,108L68.57,108z M68.57,108"/>
	<path fill="#ECD564" d="M36.43,43.97h30c1.18,0,2.14-0.9,2.14-2c0-1.11-0.96-2-2.14-2h-30c-1.18,0-2.14,0.9-2.14,2
		C34.29,43.07,35.24,43.97,36.43,43.97L36.43,43.97z M36.43,43.97"/>
	<path fill="#ECD564" d="M36.43,31.97H45c1.19,0,2.14-0.9,2.14-2c0-1.1-0.96-2-2.14-2h-8.57c-1.18,0-2.14,0.9-2.14,2
		C34.29,31.07,35.24,31.97,36.43,31.97L36.43,31.97z M36.43,31.97"/>
	<path fill="#ECD564" d="M70.71,27.97H53.57c-1.18,0-2.14,0.9-2.14,2c0,1.1,0.96,2,2.14,2h17.14c1.18,0,2.14-0.9,2.14-2
		C72.86,28.86,71.9,27.97,70.71,27.97L70.71,27.97z M70.71,27.97"/>
	<path fill="#ECD564" d="M100.71,0H19.29C8.68,0,0.04,8.04,0,17.94v0.09c0.03,6.38,3.72,12.33,9.64,15.53
		c1.02,0.55,2.33,0.23,2.93-0.73c0.6-0.96,0.24-2.18-0.78-2.73c-4.62-2.5-7.49-7.14-7.5-12.11C4.3,10.27,11.02,4,19.29,4h81.43
		c8.27,0,15,6.28,15,14.01v84.03c0,1.02-0.3,2.03-0.88,2.94c-0.6,0.95-0.26,2.18,0.76,2.74c0.34,0.19,0.72,0.28,1.08,0.28
		c0.73,0,1.45-0.35,1.85-0.99c0.96-1.52,1.47-3.24,1.47-4.97V18.01C120,8.08,111.35,0,100.71,0L100.71,0z M100.71,0"/>
	<path fill="#ECD564" d="M107.14,91.99c0-6.62-5.77-12.01-12.86-12.01c-7.09,0-12.86,5.38-12.86,12.01c0,6.62,5.77,12,12.86,12
		C101.38,103.99,107.14,98.61,107.14,91.99L107.14,91.99z M94.29,99.99c-4.73,0-8.57-3.59-8.57-8c0-4.41,3.85-8,8.57-8
		c4.73,0,8.57,3.59,8.57,8C102.86,96.4,99.01,99.99,94.29,99.99L94.29,99.99z M94.29,99.99"/>
	<path fill="#ECD564" d="M90.42,106c-1.02-0.55-2.33-0.22-2.93,0.73l-4.61,7.47l-0.73-1.03c-0.37-0.53-0.99-0.86-1.66-0.89
		l-1.32-0.07l4.69-7.58c0.59-0.96,0.24-2.18-0.78-2.73c-1.02-0.55-2.34-0.23-2.93,0.73L73.72,113c-0.37,0.6-0.38,1.34-0.03,1.95
		c0.35,0.61,1.01,1.01,1.76,1.05l3.71,0.21l2.05,2.9c0.4,0.56,1.07,0.9,1.79,0.9h0.07c0.74-0.02,1.42-0.4,1.79-1l6.35-10.27
		C91.8,107.77,91.44,106.55,90.42,106L90.42,106z M90.42,106"/>
	<path fill="#ECD564" d="M108.49,102.7c-0.59-0.96-1.91-1.29-2.93-0.73c-1.03,0.55-1.38,1.78-0.79,2.73l4.64,7.49l-1.32,0.07
		c-0.67,0.04-1.29,0.37-1.66,0.89l-0.73,1.03l-4.59-7.43c-0.6-0.96-1.91-1.28-2.93-0.73c-1.02,0.55-1.38,1.78-0.78,2.73l6.33,10.23
		c0.37,0.6,1.05,0.98,1.79,1h0.07c0.72,0,1.39-0.34,1.79-0.9l2.05-2.9l3.71-0.21c0.74-0.04,1.41-0.44,1.76-1.05
		c0.35-0.61,0.34-1.35-0.03-1.95L108.49,102.7z M108.49,102.7"/>
	<path fill="#ECD564" d="M36.43,55.98h12.86c1.18,0,2.14-0.9,2.14-2c0-1.1-0.96-2-2.14-2H36.43c-1.18,0-2.14,0.9-2.14,2
		C34.29,55.08,35.24,55.98,36.43,55.98L36.43,55.98z M36.43,55.98"/>
	<path fill="#ECD564" d="M36.43,67.98h25.71c1.18,0,2.14-0.9,2.14-2c0-1.11-0.96-2-2.14-2H36.43c-1.18,0-2.14,0.9-2.14,2
		C34.29,67.08,35.24,67.98,36.43,67.98L36.43,67.98z M36.43,67.98"/>
	<path fill="#ECD564" d="M36.66,92.88c0.53,0.99,1.81,1.39,2.87,0.9c1.06-0.49,1.49-1.7,0.96-2.69c-2.12-3.96-2.6-7.52-1.28-9.51
		c0.7-1.06,1.93-1.6,3.65-1.6c1.02,0,1.4,0.33,1.64,0.65c1.6,2.15,0.08,8.69-1.51,12.66c-0.35,0.88,0,1.87,0.85,2.39
		c0.85,0.51,1.96,0.4,2.67-0.27c0.91-0.85,1.91-1.7,2.77-2.39v0.98c0,0.81,0.52,1.54,1.32,1.85c0.8,0.31,1.72,0.14,2.34-0.43
		c0.98-0.91,2.11-1.81,3.07-2.45c-0.03,0.05-0.05,0.1-0.08,0.14c-0.33,0.62-0.29,1.36,0.1,1.95c0.39,0.59,1.08,0.95,1.82,0.95h8.57
		c1.18,0,2.14-0.9,2.14-2c0-1.1-0.96-2-2.14-2h-5.58c0.17-0.95,0.13-1.92-0.39-2.7c-0.55-0.83-1.5-1.3-2.61-1.3
		c-1.32,0-2.88,0.75-4.31,1.68c-0.11-0.87-0.66-1.59-1.5-1.91c-0.57-0.22-1.31-0.51-3.1,0.49c0.7-3.45,0.91-7.42-0.93-9.9
		c-0.8-1.08-2.35-2.37-5.17-2.37c-3.21,0-5.8,1.24-7.29,3.5C33.43,82.71,33.82,87.6,36.66,92.88L36.66,92.88z M36.66,92.88"/>
	<path fill="#ECD564" d="M94.29,65.98c0-1.11-0.96-2-2.14-2H70.71c-1.18,0-2.14,0.9-2.14,2c0,1.1,0.96,2,2.14,2h21.43
		C93.33,67.98,94.29,67.08,94.29,65.98L94.29,65.98z M94.29,65.98"/>
</g>
</svg>
