<?xml version="1.0" encoding="utf-8"?>
<!-- Generator: Adobe Illustrator 17.0.0, SVG Export Plug-In . SVG Version: 6.00 Build 0)  -->
<!DOCTYPE svg PUBLIC "-//W3C//DTD SVG 1.1//EN" "http://www.w3.org/Graphics/SVG/1.1/DTD/svg11.dtd">
<svg version="1.1" id="Camada_1" xmlns="http://www.w3.org/2000/svg" xmlns:xlink="http://www.w3.org/1999/xlink" x="0px" y="0px"
	 width="120px" height="120px" viewBox="0 0 120 120" enable-background="new 0 0 120 120" xml:space="preserve">
<g>
	<path fill="#ECD564" d="M118,0L118,0H2C0.9,0,0,0.89,0,2v0v40h4V4h112v44H46v4h72c1.1,0,2-0.89,2-2v0V2C120,0.9,119.11,0,118,0
		L118,0z M118,0"/>
	<rect x="66" y="10" fill="#ECD564" width="40" height="4"/>
	<rect x="72" y="22" fill="#ECD564" width="40" height="4"/>
	<rect x="64" y="34" fill="#ECD564" width="40" height="4"/>
	<path fill="#ECD564" d="M63.84,17.24c-1.37-3.29-5.15-4.85-8.44-3.48c-0.06,0.02-0.11,0.05-0.17,0.07l-16.22,8.41
		c0.64-1.33,0.98-2.78,0.98-4.25c0-5.52-4.48-10-10-10c-5.52,0-10,4.48-10,10c0.01,2.17,0.73,4.28,2.05,6h-0.08
		c-5.68,0.04-10.74,3.57-12.75,8.88l-5.34,18.4c-1.27,3.3,0.38,7.01,3.68,8.28c1.51,0.58,3.17,0.57,4.67-0.03
		c1.72-0.69,3.06-2.1,3.68-3.85L18,49.03v28.95c-1.72-1.32-3.83-2.04-6-2.05c-5.51-0.01-9.99,4.46-10,9.97
		c0,2.7,1.09,5.29,3.02,7.17c-3.07,1.57-5.01,4.72-5.02,8.17V118c0,1.1,0.89,2,2,2h0h20c1.1,0,2-0.89,2-2v0v-16.76
		c-0.01-2.84-1.33-5.51-3.57-7.24h15.14c-2.24,1.73-3.56,4.4-3.57,7.24V118c0,1.1,0.89,2,2,2c0,0,0,0,0,0h20c1.1,0,2-0.89,2-2v0
		v-16.76c-0.01-3.45-1.95-6.6-5.02-8.17c3.95-3.85,4.03-10.18,0.17-14.13c-2.37-2.43-5.82-3.49-9.15-2.81V35.22l18.36-9.53
		C63.65,24.31,65.21,20.53,63.84,17.24L63.84,17.24z M30,12c3.31,0,6,2.69,6,6s-2.69,6-6,6c-3.31,0-6-2.69-6-6
		C24,14.69,26.69,12,30,12L30,12z M12,79.93c3.31,0,6,2.69,6,6c0,3.31-2.69,6-6,6c-3.31,0-6-2.69-6-6C6,82.61,8.69,79.93,12,79.93
		L12,79.93z M20,116H4v-14.76C4,98.35,6.35,96,9.24,96h5.52c2.89,0,5.24,2.35,5.24,5.24V116z M52,101.24V116H36v-14.76
		c0-2.89,2.35-5.24,5.24-5.24h5.52C49.65,96,52,98.35,52,101.24L52,101.24z M44,79.93c3.31,0,6,2.69,6,6c0,3.31-2.69,6-6,6
		c-3.31,0-6-2.69-6-6C38,82.61,40.69,79.93,44,79.93L44,79.93z M60.18,20.58c-0.27,0.69-0.82,1.23-1.51,1.48L39.08,32.22
		C38.42,32.57,38,33.25,38,34v43.98c-3.75,2.77-5.04,7.78-3.11,12.02H32V56h-4v34h-6.89c0.57-1.26,0.87-2.62,0.88-4H22V36
		c0-1.1-0.9-2-2-2c-0.87,0-1.65,0.57-1.91,1.4l-5.97,19c-0.45,1.25-1.83,1.89-3.08,1.44c-0.09-0.03-0.17-0.07-0.26-0.11
		c-1.15-0.6-1.64-1.99-1.12-3.18l5.34-18.4c1.44-3.7,4.99-6.14,8.96-6.16h14.16c0.32,0,0.64-0.08,0.92-0.22l19.88-10.32
		c1.19-0.5,2.57,0.01,3.15,1.17C60.38,19.23,60.42,19.94,60.18,20.58L60.18,20.58z M60.18,20.58"/>
	<path fill="#ECD564" d="M82.98,93.07c3.96-3.85,4.04-10.19,0.18-14.14c-3.85-3.96-10.18-4.04-14.14-0.18
		c-3.96,3.85-4.04,10.18-0.18,14.14c0.06,0.06,0.12,0.12,0.18,0.18c-3.07,1.57-5.01,4.72-5.02,8.17V118c0,1.1,0.89,2,2,2h0h20
		c1.1,0,2-0.89,2-2v0v-16.76C87.99,97.79,86.05,94.64,82.98,93.07L82.98,93.07z M76,79.93c3.31,0,6,2.69,6,6c0,3.31-2.69,6-6,6
		c-3.31,0-6-2.69-6-6C70,82.61,72.69,79.93,76,79.93L76,79.93z M84,116H68v-14.76c0-2.89,2.35-5.24,5.24-5.24h5.52
		c2.89,0,5.24,2.35,5.24,5.24V116z M84,116"/>
	<path fill="#ECD564" d="M114.98,93.07c3.96-3.85,4.04-10.19,0.18-14.14c-3.85-3.96-10.18-4.04-14.14-0.18
		c-3.96,3.85-4.04,10.18-0.18,14.14c0.06,0.06,0.12,0.12,0.18,0.18c-3.07,1.57-5.01,4.72-5.02,8.17V118c0,1.1,0.89,2,2,2h0h20
		c1.1,0,2-0.89,2-2v0v-16.76C119.99,97.79,118.05,94.64,114.98,93.07L114.98,93.07z M108,79.93c3.31,0,6,2.69,6,6c0,3.31-2.69,6-6,6
		c-3.31,0-6-2.69-6-6C102,82.61,104.69,79.93,108,79.93L108,79.93z M116,116h-16v-14.76c0-2.89,2.35-5.24,5.24-5.24h5.52
		c2.89,0,5.24,2.35,5.24,5.24V116z M116,116"/>
</g>
</svg>
