<?xml version="1.0" encoding="utf-8"?>
<!-- Generator: Adobe Illustrator 17.0.0, SVG Export Plug-In . SVG Version: 6.00 Build 0)  -->
<!DOCTYPE svg PUBLIC "-//W3C//DTD SVG 1.1//EN" "http://www.w3.org/Graphics/SVG/1.1/DTD/svg11.dtd">
<svg version="1.1" id="Camada_1" xmlns="http://www.w3.org/2000/svg" xmlns:xlink="http://www.w3.org/1999/xlink" x="0px" y="0px"
	 width="120px" height="120px" viewBox="0 0 120 120" enable-background="new 0 0 120 120" xml:space="preserve">
<g>
	<path fill="#ECD564" d="M86,112H30c-1.1,0-2,0.9-2,2v4c0,1.1,0.9,2,2,2s2-0.9,2-2v-2h54c1.1,0,2-0.9,2-2S87.1,112,86,112L86,112z
		 M86,112"/>
	<path fill="#ECD564" d="M44,50c0,1.1,0.9,2,2,2h8c1.1,0,2-0.9,2-2V38c0-1.1-0.9-2-2-2h-8c-1.1,0-2,0.9-2,2V50z M48,40h4v8h-4V40z
		 M48,40"/>
	<path fill="#ECD564" d="M26,24H2c-1.1,0-2,0.9-2,2v40c0,1.1,0.9,2,2,2c1.11,0,2-0.9,2-2V28h22c1.1,0,2-0.9,2-2
		C28,24.9,27.1,24,26,24L26,24z M26,24"/>
	<path fill="#ECD564" d="M96,98c0,1.1,0.9,2,2,2h8c1.1,0,2-0.9,2-2V86c0-1.1-0.9-2-2-2h-8c-1.1,0-2,0.9-2,2V98z M100,88h4v8h-4V88z
		 M100,88"/>
	<path fill="#ECD564" d="M10,72C0.11,72,0,97.74,0,98c0,4.83,3.44,8.87,8,9.8V118c0,1.1,0.9,2,2,2c1.1,0,2-0.9,2-2v-10.2
		c4.56-0.93,8-4.97,8-9.8C20,97.74,19.89,72,10,72L10,72z M10,104c-3.31,0-6-2.69-6-6c0-9.96,2.68-22,6-22c3.32,0,6,12.04,6,22
		C16,101.31,13.31,104,10,104L10,104z M10,104"/>
	<path fill="#ECD564" d="M22,60h-8c-1.1,0-2,0.9-2,2v4c0,1.1,0.9,2,2,2c1.1,0,2-0.9,2-2v-2h4v10c0,1.1,0.9,2,2,2c1.1,0,2-0.9,2-2V62
		C24,60.9,23.1,60,22,60L22,60z M22,60"/>
	<path fill="#ECD564" d="M98,52h8c1.1,0,2-0.9,2-2V38c0-1.1-0.9-2-2-2h-8c-1.1,0-2,0.9-2,2v12C96,51.1,96.9,52,98,52L98,52z M100,40
		h4v8h-4V40z M100,40"/>
	<path fill="#ECD564" d="M22,36h-8c-1.1,0-2,0.9-2,2v12c0,1.1,0.9,2,2,2h8c1.1,0,2-0.9,2-2V38C24,36.9,23.1,36,22,36L22,36z M20,48
		h-4v-8h4V48z M20,48"/>
	<path fill="#ECD564" d="M64,50c0,1.1,0.9,2,2,2h8c1.1,0,2-0.9,2-2V38c0-1.1-0.9-2-2-2h-8c-1.1,0-2,0.9-2,2V50z M68,40h4v8h-4V40z
		 M68,40"/>
	<path fill="#ECD564" d="M118,24H94c-1.1,0-2,0.9-2,2s0.9,2,2,2h22v80.37c-0.63-0.22-1.29-0.37-2-0.37c-0.35,0-0.69,0.03-1.03,0.09
		c-1.38-2.49-4.01-4.09-6.97-4.09c-2.96,0-5.59,1.6-6.97,4.09C98.69,108.03,98.35,108,98,108c-3.31,0-6,2.69-6,6c0,3.31,2.69,6,6,6
		h16c3.31,0,6-2.69,6-6V26C120,24.9,119.1,24,118,24L118,24z M114,116H98c-1.1,0-2-0.9-2-2c0-1.1,0.9-2,2-2
		c0.38,0,0.75,0.11,1.08,0.33c0.55,0.35,1.23,0.41,1.84,0.17c0.6-0.24,1.05-0.77,1.2-1.4c0.42-1.82,2.02-3.1,3.88-3.1
		c1.86,0,3.46,1.27,3.88,3.1c0.15,0.63,0.59,1.16,1.2,1.4c0.6,0.24,1.29,0.18,1.84-0.17c1.3-0.84,3.08,0.19,3.08,1.67
		C116,115.1,115.1,116,114,116L114,116z M114,116"/>
	<path fill="#ECD564" d="M66,28h8c1.1,0,2-0.9,2-2V14c0-1.1-0.9-2-2-2h-8c-1.1,0-2,0.9-2,2v12C64,27.1,64.9,28,66,28L66,28z M68,16
		h4v8h-4V16z M68,16"/>
	<path fill="#ECD564" d="M64,74c0,1.1,0.9,2,2,2h8c1.1,0,2-0.9,2-2V62c0-1.1-0.9-2-2-2h-8c-1.1,0-2,0.9-2,2V74z M68,64h4v8h-4V64z
		 M68,64"/>
	<path fill="#ECD564" d="M46,28h8c1.1,0,2-0.9,2-2V14c0-1.1-0.9-2-2-2h-8c-1.1,0-2,0.9-2,2v12C44,27.1,44.9,28,46,28L46,28z M48,16
		h4v8h-4V16z M48,16"/>
	<path fill="#ECD564" d="M58.58,96.58C58.22,96.96,58,97.48,58,98c0,0.52,0.22,1.04,0.58,1.42c0.38,0.36,0.9,0.58,1.42,0.58
		c0.52,0,1.04-0.22,1.42-0.58C61.78,99.04,62,98.52,62,98c0-0.52-0.22-1.04-0.58-1.42C60.66,95.84,59.34,95.84,58.58,96.58
		L58.58,96.58z M58.58,96.58"/>
	<path fill="#ECD564" d="M44,74c0,1.1,0.9,2,2,2h8c1.1,0,2-0.9,2-2V62c0-1.1-0.9-2-2-2h-8c-1.1,0-2,0.9-2,2V74z M48,64h4v8h-4V64z
		 M48,64"/>
	<path fill="#ECD564" d="M40,86c0,1.1,0.9,2,2,2h6v18c0,1.1,0.9,2,2,2s2-0.9,2-2V88h16v18c0,1.1,0.9,2,2,2s2-0.9,2-2V88h6
		c1.1,0,2-0.9,2-2s-0.9-2-2-2H42C40.9,84,40,84.9,40,86L40,86z M40,86"/>
	<path fill="#ECD564" d="M96,74c0,1.1,0.9,2,2,2h8c1.1,0,2-0.9,2-2V62c0-1.1-0.9-2-2-2h-8c-1.1,0-2,0.9-2,2V74z M100,64h4v8h-4V64z
		 M100,64"/>
	<path fill="#ECD564" d="M86,0H34c-1.1,0-2,0.9-2,2v104c0,1.1,0.9,2,2,2c1.1,0,2-0.9,2-2V4h48v102c0,1.1,0.9,2,2,2s2-0.9,2-2V2
		C88,0.9,87.1,0,86,0L86,0z M86,0"/>
</g>
</svg>
