<?xml version="1.0" encoding="utf-8"?>
<!-- Generator: Adobe Illustrator 17.0.0, SVG Export Plug-In . SVG Version: 6.00 Build 0)  -->
<!DOCTYPE svg PUBLIC "-//W3C//DTD SVG 1.1//EN" "http://www.w3.org/Graphics/SVG/1.1/DTD/svg11.dtd">
<svg version="1.1" id="Camada_1" xmlns="http://www.w3.org/2000/svg" xmlns:xlink="http://www.w3.org/1999/xlink" x="0px" y="0px"
	 width="120px" height="120px" viewBox="0 0 120 120" enable-background="new 0 0 120 120" xml:space="preserve">
<g>
	<path fill="#ECD564" d="M87.61,55.22c-5.45,0-9.86-4.41-9.86-9.86c0-5.45,4.42-9.86,9.86-9.86c5.45,0,9.86,4.42,9.86,9.86
		C97.47,50.8,93.06,55.21,87.61,55.22L87.61,55.22z M87.61,39.44c-3.27,0-5.92,2.65-5.92,5.92c0,3.27,2.65,5.92,5.92,5.92
		c3.27,0,5.92-2.65,5.92-5.92C93.53,42.09,90.88,39.44,87.61,39.44L87.61,39.44z M87.61,39.44"/>
	<g>
		<path fill="#ECD564" d="M32.39,55.22c-5.45,0-9.86-4.41-9.86-9.86c0-5.45,4.41-9.86,9.86-9.86c5.45,0,9.86,4.42,9.86,9.86
			C42.25,50.8,37.84,55.21,32.39,55.22L32.39,55.22z M32.39,39.44c-3.27,0-5.92,2.65-5.92,5.92c0,3.27,2.65,5.92,5.92,5.92
			c3.27,0,5.92-2.65,5.92-5.92C38.31,42.09,35.66,39.44,32.39,39.44L32.39,39.44z M32.39,39.44"/>
		<path fill="#ECD564" d="M99.44,67.92l18.8-17.09c2.2-2.05,2.35-5.48,0.35-7.72c-2.01-2.24-5.44-2.45-7.71-0.48L96.72,55.22h-19.9
			L61.98,73.36v-49.7H81.7v7.89h32.49l-4.73-11.83l4.73-11.83H91.56V0H58.03v73.36L43.19,55.22h-19.9L9.13,42.63
			c-2.27-1.97-5.7-1.76-7.71,0.48c-2.01,2.24-1.86,5.67,0.35,7.72l18.8,17.09v46.46H0.84v3.94h118.32v-3.94H99.44V67.92z
			 M91.56,11.83h16.81l-3.15,7.89l3.15,7.89H85.64v-3.94h5.92V11.83z M61.98,3.94h25.64v15.78H61.98V3.94z M40.28,114.38h-5.92
			V86.77h-3.94v27.61h-5.92v-48.2L4.42,47.92c-0.57-0.53-0.67-1.38-0.24-2.03c0.25-0.37,0.65-0.62,1.1-0.68
			c0.45-0.06,0.9,0.08,1.23,0.38l15.28,13.57h19.53l14.66,17.92c0.57,0.68,0.48,1.69-0.2,2.26c-0.68,0.57-1.69,0.48-2.26-0.2
			L40.28,63.7V114.38z M75.78,114.38H44.23V74.35l6.31,7.36c1.83,2.13,4.96,2.56,7.3,1c0.07-0.05,0.14-0.11,0.21-0.17V98.6h3.94
			V82.54c0.07,0.06,0.14,0.12,0.22,0.17c2.33,1.55,5.46,1.12,7.28-1l6.3-7.36V114.38z M95.5,114.38h-5.92V86.77h-3.94v27.61h-5.92
			V63.7L66.48,79.15c-0.53,0.61-1.44,0.73-2.11,0.28c-0.38-0.25-0.63-0.64-0.69-1.09c-0.07-0.45,0.06-0.9,0.34-1.25l14.66-17.93
			h19.54l15.27-13.58c0.34-0.3,0.79-0.44,1.23-0.38c0.45,0.06,0.86,0.31,1.11,0.69c0.42,0.64,0.32,1.5-0.25,2.02L95.5,66.18V114.38z
			 M95.5,114.38"/>
	</g>
</g>
</svg>
