<?xml version="1.0" encoding="utf-8"?>
<!-- Generator: Adobe Illustrator 17.0.0, SVG Export Plug-In . SVG Version: 6.00 Build 0)  -->
<!DOCTYPE svg PUBLIC "-//W3C//DTD SVG 1.1//EN" "http://www.w3.org/Graphics/SVG/1.1/DTD/svg11.dtd">
<svg version="1.1" id="Camada_1" xmlns="http://www.w3.org/2000/svg" xmlns:xlink="http://www.w3.org/1999/xlink" x="0px" y="0px"
	 width="100px" height="100px" viewBox="0 -7.73 100 100" enable-background="new 0 -7.73 100 100" xml:space="preserve">
<g>
	<path fill="#084487" d="M59.68,72.49H52.1c-1.08,0-1.95,0.87-1.95,1.95c0,1.08,0.88,1.95,1.95,1.95h7.58
		c1.17,0,2.12,0.95,2.12,2.12c0,1.17-0.95,2.12-2.12,2.12h-20.4c-3.07,0-5.95-1.35-7.91-3.71l-4.88-5.86
		c-2.62-3.15-6.43-4.99-10.5-5.11V54.42h7.19c3.55,0,6.9,1.36,9.45,3.82L43.16,68.4c0.74,0.72,0.78,1.92,0.08,2.68
		c-0.72,0.77-1.93,0.82-2.71,0.11l-8.27-7.58c-0.79-0.73-2.03-0.68-2.76,0.12c-0.73,0.79-0.68,2.03,0.12,2.76l8.27,7.58
		c1.11,1.02,2.53,1.53,3.93,1.53c1.57,0,3.14-0.63,4.28-1.87c2.13-2.31,2.03-5.96-0.24-8.14L35.34,55.43
		c-3.28-3.17-7.6-4.91-12.17-4.91H15.6c-0.74-1.74-2.46-2.96-4.46-2.96H1.95C0.87,47.55,0,48.43,0,49.51v14.28
		c0,1.08,0.87,1.95,1.95,1.95s1.95-0.87,1.95-1.95V51.46h7.24c0.52,0,0.93,0.42,0.93,0.93v15.65c0,0.52-0.42,0.93-0.93,0.93H9.12
		c-1.08,0-1.95,0.87-1.95,1.95c0,1.08,0.87,1.95,1.95,1.95h2.03c2.03,0,3.77-1.26,4.49-3.03c3.04,0.02,5.9,1.37,7.85,3.71l4.88,5.86
		c2.7,3.25,6.68,5.12,10.91,5.12h20.4c3.32,0,6.03-2.7,6.03-6.03C65.71,75.19,63,72.49,59.68,72.49L59.68,72.49z"/>
	<path fill="#084487" d="M98.05,18.04c-1.08,0-1.95,0.87-1.95,1.95v13.09h-7.24c-0.52,0-0.93-0.42-0.93-0.93V16.5
		c0-0.51,0.42-0.93,0.93-0.93h1.89c1.08,0,1.95-0.87,1.95-1.95s-0.88-1.95-1.95-1.95h-1.89c-2.03,0-3.77,1.26-4.49,3.03
		c-3.04-0.02-5.9-1.37-7.85-3.71l-4.88-5.86C68.93,1.87,64.95,0,60.72,0h-20.4C37,0,34.29,2.7,34.29,6.03c0,3.32,2.7,6.03,6.03,6.03
		h8.34c1.08,0,1.95-0.87,1.95-1.95s-0.87-1.95-1.95-1.95h-8.34c-1.17,0-2.12-0.95-2.12-2.12s0.95-2.12,2.12-2.12h20.4
		c3.07,0,5.95,1.35,7.91,3.71l4.88,5.86c2.62,3.15,6.43,4.99,10.5,5.11v11.54h-7.19c-3.55,0-6.9-1.36-9.45-3.82L56.84,16.14
		c-0.74-0.72-0.78-1.92-0.08-2.68c0.72-0.78,1.93-0.83,2.71-0.11l8.27,7.58c0.8,0.73,2.03,0.68,2.76-0.12
		c0.73-0.8,0.68-2.03-0.12-2.76l-8.27-7.58c-2.36-2.16-6.04-2.01-8.22,0.34c-2.13,2.31-2.03,5.96,0.24,8.14l10.53,10.16
		c3.28,3.17,7.6,4.91,12.17,4.91h7.57c0.74,1.74,2.46,2.96,4.46,2.96h9.19c1.08,0,1.95-0.87,1.95-1.95V19.99
		C100,18.91,99.13,18.04,98.05,18.04L98.05,18.04z"/>
	<path fill="#084487" d="M63.05,66.42c-0.44-0.98-1.6-1.42-2.58-0.98c-0.99,0.43-1.44,1.58-1.01,2.57c0.32,0.74,1.04,1.17,1.79,1.17
		c0.26,0,0.52-0.05,0.78-0.16c0.01,0,0.03-0.02,0.04-0.02C63.06,68.56,63.5,67.4,63.05,66.42L63.05,66.42z"/>
	<path fill="#084487" d="M67.91,63.13c-0.64-0.87-1.87-1.05-2.73-0.41c-0.87,0.64-1.06,1.86-0.42,2.73c0.38,0.52,0.98,0.8,1.58,0.8
		c0.4,0,0.8-0.12,1.15-0.38l0.02-0.02C68.37,65.21,68.55,64,67.91,63.13L67.91,63.13z"/>
	<path fill="#084487" d="M57.59,68.61c-0.22-1.05-1.26-1.73-2.31-1.51c-1.05,0.21-1.74,1.23-1.54,2.28c0.18,0.94,1,1.59,1.92,1.59
		c0.12,0,0.25-0.01,0.37-0.04c0.01,0,0.04-0.01,0.06-0.01C57.15,70.7,57.82,69.67,57.59,68.61L57.59,68.61z"/>
	<path fill="#084487" d="M71.99,58.89c-0.8-0.72-2.04-0.66-2.76,0.14c-0.01,0.01-0.03,0.04-0.04,0.05c-0.71,0.82-0.61,2.05,0.2,2.75
		c0.37,0.32,0.82,0.47,1.27,0.47c0.54,0,1.08-0.22,1.47-0.66C72.85,60.84,72.79,59.61,71.99,58.89L71.99,58.89z M70.9,60.53
		l-0.22-0.2l0.23,0.21L70.9,60.53z"/>
	<path fill="#084487" d="M76.96,48.3c-1.03-0.31-2.12,0.28-2.44,1.31c-0.32,1.03,0.26,2.12,1.29,2.44c0.19,0.06,0.38,0.09,0.57,0.09
		c0.83,0,1.61-0.54,1.87-1.38l0.01-0.03C78.58,49.7,77.99,48.61,76.96,48.3L76.96,48.3z"/>
	<path fill="#084487" d="M79.46,38.22c0-0.02-0.01-0.05-0.01-0.07c-0.22-1.05-1.26-1.73-2.31-1.51c-1.05,0.22-1.73,1.25-1.52,2.3
		c0.18,0.93,1,1.58,1.92,1.58c0.11,0,0.23-0.01,0.35-0.03C78.94,40.3,79.65,39.28,79.46,38.22L79.46,38.22z"/>
	<path fill="#084487" d="M77.67,42.46c-1.07-0.09-2.02,0.7-2.12,1.77c0,0.02,0,0.06,0,0.08c-0.06,1.08,0.76,2,1.83,2.07
		c0.04,0,0.08,0,0.12,0c1.02,0,1.87-0.79,1.95-1.81C79.53,43.5,78.74,42.55,77.67,42.46L77.67,42.46z"/>
	<path fill="#084487" d="M75.05,53.86c-0.94-0.53-2.13-0.2-2.66,0.74l-0.03,0.05c-0.51,0.95-0.17,2.14,0.78,2.66
		c0.3,0.16,0.62,0.24,0.93,0.24c0.69,0,1.35-0.37,1.71-1.02l-1.7-0.96l1.7,0.96C76.32,55.58,75.99,54.39,75.05,53.86L75.05,53.86z"
		/>
	<path fill="#084487" d="M39.63,16.67c-0.48-0.97-1.66-1.36-2.62-0.87l-0.02,0.01c-0.96,0.48-1.35,1.65-0.86,2.62
		c0.34,0.68,1.03,1.08,1.75,1.08c0.3,0,0.6-0.07,0.88-0.21C39.72,18.8,40.11,17.63,39.63,16.67L39.63,16.67z"/>
	<path fill="#084487" d="M45.28,15.04c-0.25-1.05-1.31-1.69-2.36-1.44c-0.01,0-0.04,0.01-0.05,0.01c-1.04,0.27-1.68,1.33-1.41,2.38
		c0.23,0.88,1.02,1.47,1.89,1.47c0.16,0,0.32-0.02,0.49-0.06C44.89,17.14,45.53,16.09,45.28,15.04L45.28,15.04z"/>
	<path fill="#084487" d="M34.46,19.48c-0.68-0.84-1.91-0.97-2.75-0.3l1.21,1.53l-1.22-1.53c-0.84,0.67-0.98,1.9-0.31,2.74
		c0.39,0.48,0.96,0.74,1.53,0.74c0.43,0,0.86-0.14,1.22-0.43l0.03-0.02C35.01,21.55,35.14,20.32,34.46,19.48L34.46,19.48z"/>
	<path fill="#084487" d="M24.05,33.38c-1.04-0.28-2.11,0.33-2.4,1.37c0,0.02-0.01,0.05-0.02,0.07c-0.25,1.05,0.39,2.1,1.44,2.36
		c0.15,0.04,0.31,0.05,0.46,0.05c0.88,0,1.67-0.59,1.89-1.48C25.7,34.72,25.08,33.66,24.05,33.38L24.05,33.38z"/>
	<path fill="#084487" d="M22.81,39.12c-1.08-0.06-2,0.76-2.06,1.84c0,0.03,0,0.05,0,0.08c-0.03,1.08,0.82,1.98,1.89,2.01
		c0.02,0,0.04,0,0.06,0c1.05,0,1.91-0.83,1.95-1.88C24.69,40.09,23.88,39.18,22.81,39.12L22.81,39.12z"/>
	<path fill="#084487" d="M26.51,28.04c-0.96-0.5-2.14-0.13-2.64,0.82l-0.03,0.06c-0.47,0.97-0.08,2.14,0.89,2.61
		c0.28,0.14,0.57,0.2,0.86,0.2c0.72,0,1.41-0.4,1.75-1.08C27.83,29.71,27.46,28.54,26.51,28.04L26.51,28.04z"/>
	<path fill="#084487" d="M30.04,23.34c-0.83-0.69-2.06-0.57-2.75,0.26c-0.01,0.01-0.03,0.04-0.04,0.05
		c-0.67,0.84-0.53,2.07,0.32,2.74c0.36,0.28,0.79,0.42,1.21,0.42c0.57,0,1.14-0.25,1.53-0.73C30.98,25.25,30.86,24.03,30.04,23.34
		L30.04,23.34z"/>
	<path fill="#084487" d="M25.01,46.57c-0.19-1.06-1.21-1.77-2.27-1.58s-1.77,1.21-1.58,2.27v0.02c0.17,0.94,0.99,1.6,1.91,1.6
		c0.12,0,0.23-0.01,0.35-0.03C24.5,48.66,25.2,47.64,25.01,46.57L25.01,46.57z"/>
	<path fill="#084487" d="M56.71,31.75c-2.54,0-4.9,1.05-6.58,2.82c-1.68-1.77-4.03-2.82-6.58-2.82c-5,0-9.07,4.07-9.07,9.07
		c0,2.7,1.19,5.24,3.26,6.97c0.01,0.01,0.03,0.02,0.04,0.03l11.13,8.81c0.35,0.28,0.78,0.42,1.21,0.42s0.86-0.14,1.22-0.43
		l11.6-9.24c0.06-0.04,0.11-0.09,0.16-0.14c1.72-1.71,2.67-3.99,2.67-6.42C65.77,35.82,61.71,31.75,56.71,31.75L56.71,31.75z
		 M60.42,44.4l-10.3,8.2l-9.89-7.83c-1.17-0.98-1.84-2.42-1.84-3.95c0-2.85,2.32-5.16,5.16-5.16c2.1,0,3.97,1.25,4.77,3.19
		c0.3,0.73,1.01,1.21,1.8,1.21s1.5-0.47,1.8-1.21c0.8-1.94,2.68-3.19,4.77-3.19c2.85,0,5.16,2.32,5.16,5.16
		C61.87,42.17,61.36,43.44,60.42,44.4L60.42,44.4z"/>
	<path fill="#084487" d="M3.9,70.94c0,1.07-0.87,1.95-1.95,1.95S0,72.02,0,70.94c0-1.08,0.87-1.95,1.95-1.95
		C3.03,68.99,3.9,69.86,3.9,70.94L3.9,70.94z"/>
	<path fill="#084487" d="M99.99,13.61c0,1.08-0.87,1.95-1.95,1.95c-1.08,0-1.95-0.87-1.95-1.95c0-1.07,0.87-1.95,1.95-1.95
		C99.12,11.66,99.99,12.53,99.99,13.61L99.99,13.61z"/>
</g>
</svg>
