<?xml version="1.0" encoding="utf-8"?>
<!-- Generator: Adobe Illustrator 17.0.0, SVG Export Plug-In . SVG Version: 6.00 Build 0)  -->
<!DOCTYPE svg PUBLIC "-//W3C//DTD SVG 1.1//EN" "http://www.w3.org/Graphics/SVG/1.1/DTD/svg11.dtd">
<svg version="1.1" id="Camada_1" xmlns="http://www.w3.org/2000/svg" xmlns:xlink="http://www.w3.org/1999/xlink" x="0px" y="0px"
	 width="100px" height="100px" viewBox="0 -10 100 100" enable-background="new 0 -10 100 100" xml:space="preserve">
<g>
	<path fill="#084487" d="M20,10h1.67c0.92,0,1.67-0.75,1.67-1.67s-0.75-1.67-1.67-1.67H20c-0.92,0-1.67,0.75-1.67,1.67
		S19.08,10,20,10L20,10z"/>
	<path fill="#084487" d="M28.33,10h55C84.25,10,85,9.25,85,8.33s-0.75-1.67-1.67-1.67h-55c-0.92,0-1.67,0.75-1.67,1.67
		C26.67,9.25,27.41,10,28.33,10L28.33,10z"/>
	<path fill="#084487" d="M91.67,0H19.72c-4.52,0.08-8.13,3.81-8.06,8.33v58.33h-10C0.75,66.67,0,67.41,0,68.33V70
		c0.01,5.52,4.48,9.99,10,10h80c5.52-0.01,9.99-4.48,10-10V8.33C99.99,3.73,96.27,0.01,91.67,0L91.67,0z M96.67,8.33v58.33h-5V8.33
		c0-1.8-0.58-3.55-1.65-5h1.65C94.43,3.34,96.66,5.57,96.67,8.33L96.67,8.33z M15,8.33c-0.07-2.68,2.04-4.92,4.72-5h63.89
		c2.68,0.08,4.79,2.32,4.72,5v58.33H15V8.33z M3.33,70H60c0,2.46,0.92,4.84,2.57,6.67H10C6.32,76.66,3.34,73.68,3.33,70L3.33,70z
		 M90,76.67H70c-3.68,0-6.66-2.99-6.67-6.67h33.33C96.66,73.68,93.68,76.66,90,76.67L90,76.67z"/>
	<path fill="#084487" d="M33.33,23.33c-8.28,0-15,6.72-15,15s6.72,15,15,15s15-6.72,15-15C48.32,30.05,41.61,23.34,33.33,23.33
		L33.33,23.33z M33.33,50c-6.44,0-11.67-5.22-11.67-11.67c0-6.44,5.22-11.67,11.67-11.67S45,31.89,45,38.33
		C44.99,44.77,39.77,49.99,33.33,50L33.33,50z"/>
	<path fill="#084487" d="M28.33,36.67c0,0.92-0.75,1.67-1.67,1.67s-1.67-0.75-1.67-1.67S25.74,35,26.66,35
		C27.59,35,28.33,35.75,28.33,36.67L28.33,36.67z"/>
	<path fill="#084487" d="M41.67,36.67c0,0.92-0.75,1.67-1.67,1.67s-1.67-0.75-1.67-1.67S39.08,35,40,35S41.67,35.75,41.67,36.67
		L41.67,36.67z"/>
	<path fill="#084487" d="M37.05,39.76c-0.85-0.36-1.83,0.04-2.18,0.89c-0.17,0.4-0.49,0.72-0.89,0.89c-0.42,0.17-0.88,0.17-1.3,0
		c-0.4-0.17-0.72-0.49-0.89-0.89c-0.23-0.55-0.74-0.93-1.33-1.01c-0.59-0.07-1.18,0.17-1.53,0.65c-0.36,0.48-0.44,1.1-0.21,1.65
		c0.78,1.85,2.6,3.05,4.61,3.05s3.82-1.2,4.61-3.05C38.3,41.1,37.9,40.12,37.05,39.76L37.05,39.76z"/>
	<path fill="#084487" d="M80,46.67V40c0-0.92-0.75-1.67-1.67-1.67s-1.67,0.75-1.67,1.67v6.67c0,0.92-0.75,1.67-1.67,1.67H58.33
		c-0.92,0-1.67-0.75-1.67-1.67V30c0-0.92,0.75-1.67,1.67-1.67H75c0.92,0,1.67-0.75,1.67-1.67s-0.75-1.67-1.67-1.67H58.33
		c-2.76,0-5,2.24-5,5v16.67c0,2.76,2.24,5,5,5H75C77.76,51.66,80,49.43,80,46.67L80,46.67z"/>
	<path fill="#084487" d="M82.16,25.49L66.67,40.98l-3.82-3.82c-0.65-0.63-1.69-0.62-2.34,0.02c-0.64,0.64-0.65,1.68-0.02,2.34l5,5
		C65.8,44.83,66.22,45,66.67,45s0.87-0.18,1.18-0.49l16.67-16.67c0.63-0.65,0.62-1.69-0.02-2.34
		C83.85,24.87,82.81,24.86,82.16,25.49L82.16,25.49z"/>
</g>
</svg>
