<?xml version="1.0" encoding="utf-8"?>
<!-- Generator: Adobe Illustrator 17.0.0, SVG Export Plug-In . SVG Version: 6.00 Build 0)  -->
<!DOCTYPE svg PUBLIC "-//W3C//DTD SVG 1.1//EN" "http://www.w3.org/Graphics/SVG/1.1/DTD/svg11.dtd">
<svg version="1.1" id="Camada_1" xmlns="http://www.w3.org/2000/svg" xmlns:xlink="http://www.w3.org/1999/xlink" x="0px" y="0px"
	 width="100px" height="100px" viewBox="0 0 100 100" enable-background="new 0 0 100 100" xml:space="preserve">
<g>
	<path fill="#084487" d="M38.06,52.98v6.799c0,1.37,1.28,2.479,2.84,2.479h18.25c1.57,0,2.84-1.117,2.84-2.479V52.98
		c0-3.247-2.42-6.005-5.77-6.974c1.11-1.196,1.77-2.715,1.77-4.364c0-3.832-3.58-6.957-7.97-6.957c-4.4,0-7.97,3.125-7.97,6.957
		c0,1.65,0.67,3.177,1.77,4.364C40.49,46.983,38.06,49.742,38.06,52.98L38.06,52.98z M50.03,37.653c2.52,0,4.58,1.789,4.58,3.989
		c0,2.191-2.04,3.998-4.58,3.998c-2.52,0-4.57-1.789-4.57-3.998C45.46,39.442,47.51,37.653,50.03,37.653L50.03,37.653z M41.46,52.98
		c0-2.418,2.25-4.382,5.02-4.382h7.1c2.77,0,5.02,1.964,5.02,4.382v6.311h-1.77v-6.52c0-0.82-0.76-1.484-1.7-1.484
		c-0.94,0-1.7,0.663-1.7,1.484v6.52h-6.81v-6.52c0-0.82-0.76-1.484-1.7-1.484c-0.94,0-1.7,0.663-1.7,1.484v6.52h-1.77V52.98
		C41.45,52.98,41.46,52.98,41.46,52.98z"/>
	<path fill="#084487" d="M38.06,17.141v4.591c0,1.37,1.28,2.479,2.84,2.479h18.25c1.57,0,2.84-1.117,2.84-2.479v-4.591
		c0-3.247-2.42-6.005-5.77-6.974c1.11-1.196,1.77-2.715,1.77-4.364c0-2.156-1.12-4.163-3.08-5.49c-0.74-0.506-1.81-0.384-2.38,0.262
		c-0.58,0.646-0.44,1.58,0.3,2.077c1.13,0.759,1.77,1.912,1.77,3.151c0,2.2-2.05,3.998-4.58,3.998c-2.52,0-4.57-1.789-4.57-3.998
		c0-1.17,0.58-2.278,1.61-3.037c0.71-0.532,0.8-1.466,0.19-2.086s-1.68-0.698-2.39-0.166c-1.78,1.327-2.79,3.256-2.79,5.289
		c0,1.65,0.67,3.177,1.77,4.373C40.49,11.145,38.06,13.903,38.06,17.141L38.06,17.141z M41.46,17.141c0-2.418,2.25-4.382,5.02-4.382
		c0.11,0,3.66,0,3.55,0h3.55c2.77,0,5.02,1.964,5.02,4.382v4.111h-1.77v-4.321c0-0.82-0.76-1.484-1.7-1.484
		c-0.94,0-1.7,0.663-1.7,1.484v4.321h-6.81v-4.321c0-0.82-0.76-1.484-1.7-1.484c-0.94,0-1.7,0.663-1.7,1.484v4.321h-1.77v-4.111
		C41.45,17.141,41.46,17.141,41.46,17.141z"/>
	<path fill="#084487" d="M75.92,36.78v4.591c0,1.37,1.28,2.479,2.84,2.479h18.25c1.57,0,2.84-1.117,2.84-2.479V36.78
		c0-3.247-2.42-6.005-5.77-6.974c1.11-1.196,1.77-2.715,1.77-4.364c0-3.84-3.58-6.957-7.97-6.957s-7.97,3.125-7.97,6.957
		c0,1.65,0.66,3.168,1.77,4.364C78.34,30.784,75.92,33.542,75.92,36.78L75.92,36.78z M87.89,21.444c2.52,0,4.58,1.789,4.58,3.998
		c0,2.2-2.05,3.998-4.58,3.998c-2.52,0-4.58-1.789-4.58-3.998C83.31,23.242,85.37,21.444,87.89,21.444L87.89,21.444z M79.32,36.78
		c0-2.418,2.25-4.382,5.02-4.382h7.1c2.77,0,5.02,1.964,5.02,4.382v4.111h-1.77V36.57c0-0.82-0.76-1.484-1.7-1.484
		s-1.7,0.663-1.7,1.484v4.321h-6.81V36.57c0-0.82-0.76-1.484-1.7-1.484c-0.94,0-1.7,0.663-1.7,1.484v4.321h-1.77L79.32,36.78
		L79.32,36.78z"/>
	<path fill="#084487" d="M0.21,36.78v4.591c0,1.37,1.28,2.479,2.84,2.479H21.3c1.57,0,2.84-1.117,2.84-2.479V36.78
		c0-3.247-2.42-6.005-5.77-6.974c1.11-1.196,1.77-2.715,1.77-4.364c0-3.84-3.58-6.957-7.97-6.957c-4.4,0-7.97,3.125-7.97,6.957
		c0,1.65,0.67,3.177,1.77,4.364C2.63,30.784,0.21,33.542,0.21,36.78L0.21,36.78z M12.18,21.444c2.52,0,4.58,1.789,4.58,3.998
		c0,2.2-2.05,3.998-4.58,3.998c-2.52,0-4.58-1.789-4.58-3.998C7.6,23.242,9.66,21.444,12.18,21.444L12.18,21.444z M3.6,36.78
		c0-2.418,2.25-4.382,5.02-4.382h7.1c2.77,0,5.02,1.964,5.02,4.382v4.111h-1.77V36.57c0-0.82-0.76-1.484-1.7-1.484
		s-1.7,0.663-1.7,1.484v4.321h-6.8V36.57c0-0.82-0.76-1.484-1.7-1.484s-1.7,0.663-1.7,1.484v4.321H3.6V36.78z"/>
	<path fill="#084487" d="M75.92,75.857c0,1.37,1.28,2.479,2.84,2.479h18.25c1.57,0,2.84-1.117,2.84-2.479v-4.591
		c0-3.247-2.42-6.005-5.77-6.974c1.11-1.196,1.77-2.715,1.77-4.364c0-3.84-3.58-6.957-7.97-6.957s-7.97,3.125-7.97,6.957
		c0,1.65,0.66,3.168,1.77,4.364c-3.35,0.969-5.77,3.727-5.77,6.974v4.591C75.91,75.857,75.92,75.857,75.92,75.857z M87.89,55.921
		c2.52,0,4.58,1.789,4.58,3.998c0,2.2-2.05,3.989-4.58,3.989c-2.52,0-4.58-1.789-4.58-3.989C83.31,57.719,85.37,55.921,87.89,55.921
		L87.89,55.921z M79.32,71.266c0-2.418,2.25-4.382,5.02-4.382h7.1c2.77,0,5.02,1.964,5.02,4.382v4.111h-1.77v-4.329
		c0-0.82-0.76-1.484-1.7-1.484s-1.7,0.663-1.7,1.484v4.321h-6.81v-4.321c0-0.82-0.76-1.484-1.7-1.484c-0.94,0-1.7,0.663-1.7,1.484
		v4.321h-1.77L79.32,71.266L79.32,71.266z"/>
	<path fill="#084487" d="M0.21,75.857c0,1.37,1.28,2.479,2.84,2.479H21.3c1.57,0,2.84-1.117,2.84-2.479v-4.591
		c0-3.247-2.42-6.005-5.77-6.974c1.11-1.196,1.77-2.715,1.77-4.364c0-3.84-3.58-6.957-7.97-6.957c-4.4,0-7.97,3.125-7.97,6.957
		c0,1.65,0.67,3.168,1.77,4.364c-3.35,0.969-5.77,3.727-5.77,6.974v4.591C0.2,75.857,0.21,75.857,0.21,75.857z M12.18,55.921
		c2.52,0,4.58,1.789,4.58,3.998c0,2.2-2.05,3.989-4.58,3.989c-2.52,0-4.58-1.789-4.58-3.989C7.6,57.719,9.66,55.921,12.18,55.921
		L12.18,55.921z M3.6,71.266c0-2.418,2.25-4.382,5.02-4.382h7.1c2.77,0,5.02,1.964,5.02,4.382v4.111h-1.77v-4.329
		c0-0.82-0.76-1.484-1.7-1.484s-1.7,0.663-1.7,1.484v4.321h-6.8v-4.321c0-0.82-0.76-1.484-1.7-1.484s-1.7,0.663-1.7,1.484v4.321H3.6
		V71.266z"/>
	<path fill="#084487" d="M25.79,61.638c0.47,0.707,1.51,0.951,2.32,0.541l3.07-1.545c3.81,4.87,10.03,8.196,17.16,8.65v3.09
		c0,0.82,0.76,1.484,1.7,1.484c0.94,0,1.7-0.663,1.7-1.484v-3.09c7.05-0.454,13.32-3.736,17.16-8.641l3.06,1.545
		c0.81,0.41,1.85,0.166,2.32-0.541s0.19-1.615-0.62-2.025l-3.06-1.545c0.85-1.536,1.48-3.177,1.86-4.914
		c0.17-0.803-0.43-1.58-1.35-1.728s-1.81,0.375-1.98,1.178c-1.72,7.89-9.67,13.773-19.08,13.773c-10.71,0-19.43-7.602-19.43-16.959
		c0-9.348,8.71-16.959,19.43-16.959c7.08,0,13.4,3.343,16.8,8.44c0.01,0.017,0.01,0.026,0.02,0.035
		c0.01,0.009,0.01,0.017,0.02,0.026c1.06,1.606,1.83,3.378,2.24,5.272c0.18,0.803,1.06,1.335,1.98,1.178
		c0.92-0.148,1.53-0.925,1.35-1.728c-0.38-1.737-1.01-3.387-1.86-4.914l3.06-1.545c0.81-0.41,1.09-1.318,0.62-2.025
		c-0.47-0.707-1.51-0.951-2.32-0.541l-3.06,1.545c-3.84-4.914-10.11-8.187-17.16-8.641v-3.09c0-0.82-0.76-1.484-1.7-1.484
		c-0.94,0-1.7,0.663-1.7,1.484v3.09c-7.12,0.463-13.34,3.788-17.16,8.65l-3.07-1.545c-0.81-0.41-1.85-0.166-2.32,0.541
		s-0.19,1.615,0.62,2.025l3.07,1.545c-3.02,5.438-3.03,11.836,0,17.3l-3.07,1.545C25.6,60.024,25.32,60.931,25.79,61.638
		L25.79,61.638z"/>
	<path fill="#084487" d="M38.06,92.93v4.591c0,1.37,1.28,2.479,2.84,2.479h18.25c1.57,0,2.84-1.117,2.84-2.479V92.93
		c0-3.247-2.42-6.005-5.77-6.974c1.11-1.196,1.77-2.715,1.77-4.364c0-3.832-3.58-6.957-7.97-6.957c-4.4,0-7.97,3.125-7.97,6.957
		c0,1.65,0.67,3.177,1.77,4.364C40.49,86.925,38.06,89.683,38.06,92.93L38.06,92.93z M50.03,77.594c2.52,0,4.58,1.789,4.58,3.998
		c0,2.2-2.05,3.998-4.58,3.998c-2.52,0-4.58-1.789-4.58-3.998C45.46,79.383,47.51,77.594,50.03,77.594L50.03,77.594z M41.46,92.93
		c0-2.418,2.25-4.382,5.02-4.382h7.1c2.77,0,5.02,1.964,5.02,4.382v4.111h-1.77V92.72c0-0.82-0.76-1.484-1.7-1.484
		c-0.94,0-1.7,0.663-1.7,1.484v4.321h-6.81V92.72c0-0.82-0.76-1.484-1.7-1.484c-0.94,0-1.7,0.663-1.7,1.484v4.321h-1.77V92.93H41.46
		z"/>
</g>
</svg>
