<?xml version="1.0" encoding="utf-8"?>
<!-- Generator: Adobe Illustrator 17.0.0, SVG Export Plug-In . SVG Version: 6.00 Build 0)  -->
<!DOCTYPE svg PUBLIC "-//W3C//DTD SVG 1.1//EN" "http://www.w3.org/Graphics/SVG/1.1/DTD/svg11.dtd">
<svg version="1.1" id="Camada_1" xmlns="http://www.w3.org/2000/svg" xmlns:xlink="http://www.w3.org/1999/xlink" x="0px" y="0px"
	 width="100px" height="100px" viewBox="0 -2.225 100 100" enable-background="new 0 -2.225 100 100" xml:space="preserve">
<g>
	<g>
		<path fill="#084487" d="M40.98,68.16l1.82,0.06c0.04,0,0.08,0.03,0.1,0.07l0.79,2.37c0.26,0.77,1.09,1.19,1.87,0.93
			c0.77-0.26,1.19-1.09,0.93-1.87l-0.79-2.37c-0.4-1.21-1.53-2.05-2.8-2.09c-1.8-0.06-1.91,0-1.92-0.15l-1.11-11.38
			c-0.15-1.52-1.41-2.81-3.21-2.76c-0.11,0-0.39,0.01-0.51-0.03c-0.01-0.03-1.37-4.5-1.38-4.53c-0.29-0.95-1.03-1.71-1.97-2.02
			c-7.81-2.55-6.14-1.85-8.94-3.56l0,0c-0.03-0.02-0.05-0.06-0.05-0.1l0.07-1.19c0.13-2.29-2.2-3.9-4.29-2.98
			c-3.75,1.66-5.37,2.4-5.81,2.56c-2.52-0.16-2.58-0.11-2.59-0.26l-0.01-0.42c-0.03-0.98-0.54-1.88-1.35-2.43s-1.84-0.67-2.76-0.34
			c-0.03,0.01-0.08,0.01-0.12-0.03L3,31.17c-0.03-0.03-0.03-0.07-0.02-0.11l1.47-4.11c0.01-0.04,0.04-0.06,0.08-0.07l5.76-1.13
			c1.33-0.26,2.32-1.34,2.45-2.69c1.05-10.38,1.13-7.5-0.06-12.95c-0.04-0.18-0.03-0.11,3.96-0.72c0.04,0,0.07,0.01,0.09,0.04
			l2.34,2.68c0.95,1.09,2.55,1.36,3.81,0.66l3.17-1.79c1.26-0.71,1.86-2.23,1.41-3.61l-0.98-3c-0.06-0.18,0.01-0.12,7.78-1.42
			c0.14-0.02-0.03-0.36,2.29,6.6c0.5,1.51,2.05,2.37,3.6,2.01l4.14-0.97c1.52-0.36,2.21-1.66,2.34-2.53
			c0.07-0.12-0.12-0.11,4.51,1.16c1.23,0.34,2.56-0.13,3.3-1.17l1.12-1.57c0.05-0.07,0.16-0.05,0.18,0.02
			c2.58,6.76,2.49,7.1,3.83,7.77l4.31,2.16c0.73,0.37,1.62,0.07,1.98-0.66s0.07-1.62-0.66-1.98c-1.16-0.58-4.03-2.02-4.31-2.16
			c-0.27-0.49-0.96-2.45-2.39-6.19c-0.87-2.28-3.93-2.67-5.35-0.68l-1.12,1.57C52,6.37,51.96,6.38,51.92,6.37l-4.39-1.21
			c-0.82-0.22-1.7-0.1-2.42,0.35c-0.83,0.51-1.16,1.17-1.39,2c0,0.07-0.03,0.18-0.1,0.2c-4.33,1.01-4.22,1.05-4.26,0.9l-2.18-6.53
			c-0.48-1.44-1.91-2.3-3.4-2.05l-7.7,1.28c-1.85,0.31-2.98,2.19-2.4,3.96l0.98,3c0.04,0.13,0.1,0.04-3.22,1.91
			c-0.04,0.02-0.1,0.02-0.13-0.02L18.93,7.5c-0.69-0.79-1.73-1.17-2.77-1.02L12.3,7.07c-0.83,0.13-1.58,0.6-2.06,1.29
			c-0.48,0.69-0.65,1.56-0.47,2.39l0.83,3.8c-0.02,0.46-0.23,2.37-0.83,8.22c-0.01,0.12,0.3,0.02-5.84,1.22
			C2.88,24.2,2,24.95,1.64,25.96l-1.47,4.11c-0.37,1.05-0.15,2.22,0.59,3.05l3.95,4.47c0.84,0.95,2.15,1.28,3.34,0.85
			c0.07-0.03,0.14,0.02,0.14,0.09l0.02,0.42c0.05,1.58,1.28,2.85,2.86,2.95c4.06,0.26,2.11,0.71,9.68-2.64
			c0.07-0.03,0.15,0.02,0.15,0.1c-0.07,1.13-0.38,2.9,1.39,3.98l0,0l0,0c3.16,1.93,1.23,1.12,9.56,3.84
			c0.03,0.01,0.06,0.04,0.07,0.07l1.37,4.49c0.51,1.67,1.81,2.17,3.52,2.17c0.15,0,0.04-0.61,1.22,11.47
			C38.18,66.93,39.45,68.11,40.98,68.16L40.98,68.16z"/>
		<path fill="#084487" d="M89.49,43.48c-4.36,4.07-4.55,4.06-4.8,5.22c-1.86,8.46-2.46,11.32-2.64,11.94
			c-0.04,0.06-7.03,10.14-7.11,10.14c-10.82,0.83-10.38,0.63-11.35,1.48c-5.15,4.49-5.39,4.46-5.6,5.85
			c-0.49,3.25-0.71,4.92-0.84,5.37c0,0-8.95,9.07-8.96,9.08c-0.04,0.04-0.11,0.04-0.15,0l-6.35-6.25c-0.15-0.15-0.32,0.1,6.46-5.18
			c1.01-0.79,1.42-2.12,1.04-3.34l-0.58-2.14c-0.21-0.79-1.03-1.25-1.81-1.04c-0.79,0.21-1.25,1.03-1.04,1.81
			c0.02,0.07,0.59,2.18,0.61,2.25c0.01,0.04,0,0.09-0.03,0.12l-6.45,5.02c-1.46,1.14-1.58,3.3-0.27,4.59l6.35,6.25
			c1.2,1.18,3.14,1.17,4.32-0.03l8.96-9.08c1.14-1.15,0.8-2.32,1.66-7.01c0.36-0.4,1.83-1.63,4.62-4.06
			c0.67-0.12,3.35-0.28,9.64-0.77c0.92-0.07,1.75-0.55,2.28-1.3l7.04-10.11c0.44-0.57,0.3-0.29,3.09-12.99
			c0.3-0.35,1.56-1.48,3.93-3.69c0.6-0.56,0.63-1.49,0.07-2.09C91.02,42.96,90.08,42.93,89.49,43.48L89.49,43.48z"/>
		<path fill="#084487" d="M99.26,29.34c-0.18-1.54-1.49-2.7-3.04-2.7h-2.18c-0.64-0.43-2.95-2.47-8.48-7.17
			c-1.2-1.02-1.63-0.75-9.71-0.36c-0.42-0.17-1.93-0.97-5.17-2.64c-0.72-0.37-1.62-0.09-1.99,0.64c-0.37,0.72-0.09,1.62,0.64,1.99
			c5.73,2.94,5.61,3.02,6.66,2.96c4.89-0.24,6.97-0.39,7.66-0.34c8.8,7.49,8.9,7.87,10.24,7.87c2.34,0,2.4-0.06,2.42,0.09
			c0.01,0.08,0.74,6.07,0.69,6.13l-3.31,3.28c-0.94,0.93-0.27,2.53,1.04,2.53c0.8,0,0.77-0.16,4.35-3.7
			c0.58-0.57,0.91-1.36,0.91-2.18C100,35.49,100.04,35.92,99.26,29.34L99.26,29.34z"/>
	</g>
</g>
</svg>
