<?xml version="1.0" encoding="utf-8"?>
<!-- Generator: Adobe Illustrator 17.0.0, SVG Export Plug-In . SVG Version: 6.00 Build 0)  -->
<!DOCTYPE svg PUBLIC "-//W3C//DTD SVG 1.1//EN" "http://www.w3.org/Graphics/SVG/1.1/DTD/svg11.dtd">
<svg version="1.1" id="Camada_1" xmlns="http://www.w3.org/2000/svg" xmlns:xlink="http://www.w3.org/1999/xlink" x="0px" y="0px"
	 width="100px" height="100px" viewBox="0 -10 100 100" enable-background="new 0 -10 100 100" xml:space="preserve">
<g>
	<path fill="#084487" d="M76.67,18.33c0-1.84-1.49-3.33-3.33-3.33H60c-1.84,0-3.33,1.49-3.33,3.33v13.33c0,1.84,1.49,3.33,3.33,3.33
		h13.33c1.84,0,3.33-1.49,3.33-3.33V18.33H76.67z M73.33,31.67H60V18.33h13.33V31.67z"/>
	<path fill="#084487" d="M76.67,58.33V55c0-0.92-0.75-1.67-1.67-1.67s-1.67,0.75-1.67,1.67v3.33H60V45h8.33
		c0.92,0,1.67-0.75,1.67-1.67s-0.75-1.67-1.67-1.67H60c-1.84,0-3.33,1.49-3.33,3.33v13.33c0,1.84,1.49,3.33,3.33,3.33h13.33
		C75.17,61.66,76.67,60.17,76.67,58.33L76.67,58.33z"/>
	<path fill="#084487" d="M25,20h5c0.92,0,1.67-0.75,1.67-1.67s-0.75-1.67-1.67-1.67h-5c-0.92,0-1.67,0.75-1.67,1.67S24.08,20,25,20
		L25,20z"/>
	<path fill="#084487" d="M48.33,16.67H36.67c-0.92,0-1.67,0.75-1.67,1.67S35.75,20,36.67,20h11.67c0.92,0,1.67-0.75,1.67-1.67
		S49.25,16.67,48.33,16.67L48.33,16.67z"/>
	<path fill="#084487" d="M48.33,23.33H25c-0.92,0-1.67,0.75-1.67,1.67s0.75,1.67,1.67,1.67h23.33c0.92,0,1.67-0.75,1.67-1.67
		S49.25,23.33,48.33,23.33L48.33,23.33z"/>
	<path fill="#084487" d="M38.33,31.67c0-0.92-0.75-1.67-1.67-1.67H25c-0.92,0-1.67,0.75-1.67,1.67s0.75,1.67,1.67,1.67h11.67
		C37.59,33.33,38.33,32.59,38.33,31.67L38.33,31.67z"/>
	<path fill="#084487" d="M48.33,30h-5c-0.92,0-1.67,0.75-1.67,1.67s0.75,1.67,1.67,1.67h5c0.92,0,1.67-0.75,1.67-1.67
		S49.25,30,48.33,30L48.33,30z"/>
	<path fill="#084487" d="M25,43.33c-0.92,0-1.67,0.75-1.67,1.67s0.75,1.67,1.67,1.67h5c0.92,0,1.67-0.75,1.67-1.67
		s-0.75-1.67-1.67-1.67H25z"/>
	<path fill="#084487" d="M48.33,43.33H36.67C35.75,43.33,35,44.08,35,45s0.75,1.67,1.67,1.67h11.67c0.92,0,1.67-0.75,1.67-1.67
		C50,44.08,49.25,43.33,48.33,43.33L48.33,43.33z"/>
	<path fill="#084487" d="M48.33,50H25c-0.92,0-1.67,0.75-1.67,1.67s0.75,1.67,1.67,1.67h23.33c0.92,0,1.67-0.75,1.67-1.67
		S49.25,50,48.33,50L48.33,50z"/>
	<path fill="#084487" d="M36.67,56.67H25c-0.92,0-1.67,0.75-1.67,1.67s0.75,1.67,1.67,1.67h11.67c0.92,0,1.67-0.75,1.67-1.67
		C38.33,57.41,37.59,56.67,36.67,56.67L36.67,56.67z"/>
	<path fill="#084487" d="M48.33,56.67h-5c-0.92,0-1.67,0.75-1.67,1.67s0.75,1.67,1.67,1.67h5c0.92,0,1.67-0.75,1.67-1.67
		C50,57.41,49.25,56.67,48.33,56.67L48.33,56.67z"/>
	<path fill="#084487" d="M77,39l-8.85,11.8l-1.97-1.97c-0.65-0.63-1.69-0.62-2.34,0.02c-0.64,0.64-0.65,1.68-0.02,2.34l3.33,3.33
		c0.31,0.31,0.74,0.49,1.18,0.49c0.04,0,0.08,0,0.12,0c0.48-0.03,0.93-0.28,1.22-0.66l10-13.33c0.55-0.74,0.4-1.78-0.33-2.33
		C78.6,38.11,77.55,38.26,77,39L77,39z"/>
	<path fill="#084487" d="M21.67,6.67H20c-0.92,0-1.67,0.75-1.67,1.67C18.33,9.25,19.08,10,20,10h1.67c0.92,0,1.67-0.75,1.67-1.67
		C23.33,7.41,22.59,6.67,21.67,6.67L21.67,6.67z"/>
	<path fill="#084487" d="M28.33,10h55C84.25,10,85,9.25,85,8.33s-0.75-1.67-1.67-1.67h-55c-0.92,0-1.67,0.75-1.67,1.67
		C26.67,9.25,27.41,10,28.33,10L28.33,10z"/>
	<path fill="#084487" d="M91.67,0H19.72c-4.52,0.08-8.13,3.81-8.06,8.33v58.33h-10C0.75,66.67,0,67.41,0,68.33V70
		c0.01,5.52,4.48,9.99,10,10h80c5.52-0.01,9.99-4.48,10-10V8.33C99.99,3.73,96.27,0.01,91.67,0L91.67,0z M96.67,8.33v58.33h-5V8.33
		c0-1.8-0.58-3.55-1.65-5h1.65C94.43,3.34,96.66,5.57,96.67,8.33L96.67,8.33z M15,8.33c-0.07-2.68,2.04-4.92,4.72-5h63.89
		c2.68,0.08,4.79,2.32,4.72,5v58.33H15V8.33z M3.33,70H60c0,2.46,0.92,4.84,2.57,6.67H10C6.32,76.66,3.34,73.68,3.33,70L3.33,70z
		 M90,76.67H70c-3.68,0-6.66-2.99-6.67-6.67h33.33C96.66,73.68,93.68,76.66,90,76.67L90,76.67z"/>
</g>
</svg>
