<?xml version="1.0" encoding="utf-8"?>
<!-- Generator: Adobe Illustrator 17.0.0, SVG Export Plug-In . SVG Version: 6.00 Build 0)  -->
<!DOCTYPE svg PUBLIC "-//W3C//DTD SVG 1.1//EN" "http://www.w3.org/Graphics/SVG/1.1/DTD/svg11.dtd">
<svg version="1.1" id="Camada_1" xmlns="http://www.w3.org/2000/svg" xmlns:xlink="http://www.w3.org/1999/xlink" x="0px" y="0px"
	 width="100px" height="100px" viewBox="0 0.835 100 100" enable-background="new 0 0.835 100 100" xml:space="preserve">
<g>
	<path fill="#084487" d="M93,35.39c2.25-2.095,3.67-5.045,3.67-8.33c0-6.324-5.24-11.467-11.67-11.467s-11.67,5.144-11.67,11.477
		c0,4.022,2.12,7.573,5.32,9.618c-2.2,1.475-3.65,3.963-3.65,6.776v11.467h-6.67v-8.192c0-5.862-4.5-10.71-10.28-11.389
		c2.22-2.085,3.62-5.026,3.62-8.281c0-6.334-5.24-11.477-11.67-11.477s-11.67,5.144-11.67,11.477c0,3.255,1.39,6.196,3.62,8.281
		c-5.78,0.679-10.28,5.517-10.28,11.389v8.192H25V43.454c0-2.813-1.45-5.301-3.65-6.776c3.2-2.046,5.32-5.586,5.32-9.618
		c0-6.324-5.24-11.467-11.67-11.467S3.33,20.736,3.33,27.069c0,3.285,1.41,6.235,3.67,8.33c-3.96,0.629-7,3.993-7,8.065v24.587
		c0,3.954,2.87,7.268,6.67,8.035v24.754H10V76.253h15v22.935c0,0.905,0.75,1.642,1.67,1.642h10c0.92,0,1.67-0.738,1.67-1.642V72.958
		h10v24.587h-6.67v3.275h16.67v-3.275h-6.67V72.958h10v26.229c0,0.905,0.75,1.642,1.67,1.642h10c0.92,0,1.67-0.738,1.67-1.642
		V76.243h15v24.587h3.33V76.076c3.8-0.757,6.67-4.072,6.67-8.035V43.454C100,39.382,96.96,36.029,93,35.39L93,35.39z M76.67,27.069
		c0-4.524,3.74-8.192,8.33-8.192c4.6,0,8.33,3.678,8.33,8.192S89.6,35.262,85,35.262S76.67,31.584,76.67,27.069L76.67,27.069z
		 M41.67,27.069c0-4.524,3.74-8.192,8.33-8.192c4.6,0,8.33,3.678,8.33,8.192S54.6,35.262,50,35.262S41.67,31.584,41.67,27.069
		L41.67,27.069z M52.6,38.537L50,45.342l-2.6-6.806H52.6z M35,46.739c0-4.524,3.74-8.192,8.33-8.192h0.51l4.59,12.048
		c0.24,0.639,0.86,1.062,1.56,1.062s1.32-0.423,1.56-1.062l4.59-12.048h0.51c4.6,0,8.33,3.678,8.33,8.192v8.192h-6.67
		c-0.92,0-1.67,0.738-1.67,1.642v6.56H43.33v-6.56c0-0.905-0.75-1.642-1.67-1.642H35V46.739z M6.67,27.069
		c0-4.524,3.74-8.192,8.33-8.192c4.6,0,8.33,3.678,8.33,8.192S19.6,35.262,15,35.262S6.67,31.584,6.67,27.069L6.67,27.069z
		 M35,97.545h-6.67V74.601c0-0.905-0.75-1.642-1.67-1.642H8.33c-2.76,0-5-2.203-5-4.917V43.454c0-2.714,2.24-4.917,5-4.917h8.33
		c2.76,0,5,2.203,5,4.917v13.11c0,0.905,0.75,1.642,1.67,1.642H40v4.917H16.67V48.371h-3.33v16.395c0,0.905,0.75,1.642,1.67,1.642
		h15c2.76,0,5,2.203,5,4.917v26.22H35z M61.85,69.683h-23.7c-0.25-1.21-0.76-2.331-1.48-3.275h26.67
		C62.61,67.353,62.1,68.474,61.85,69.683L61.85,69.683z M96.67,68.041c0,2.714-2.24,4.917-5,4.917H73.33
		c-0.92,0-1.67,0.738-1.67,1.642v22.945H65v-26.22c0-2.714,2.24-4.917,5-4.917h15c0.92,0,1.67-0.738,1.67-1.642V48.371h-3.33v14.752
		H60v-4.917h16.67c0.92,0,1.67-0.738,1.67-1.642v-13.11c0-2.714,2.24-4.917,5-4.917h8.33c2.76,0,5,2.203,5,4.917V68.041z"/>
	<rect x="48.33" y="54.931" fill="#084487" width="3.33" height="3.275"/>
	<path fill="#084487" d="M41.67,0.84H18.33c-0.92,0-1.67,0.738-1.67,1.642v8.192c0,0.905,0.75,1.642,1.67,1.642H25v3.275
		c0,0.62,0.36,1.19,0.92,1.465c0.24,0.118,0.49,0.167,0.75,0.167c0.35,0,0.71-0.108,1-0.325l6.22-4.593h7.78
		c0.92,0,1.67-0.738,1.67-1.642V2.482C43.33,1.578,42.59,0.84,41.67,0.84L41.67,0.84z M40,9.032h-6.67c-0.36,0-0.71,0.118-1,0.325
		l-4,2.95v-1.633c0-0.905-0.75-1.642-1.67-1.642H20V4.115h20V9.032z"/>
	<rect x="58.33" y="5.757" fill="#084487" width="3.33" height="3.275"/>
	<rect x="65" y="5.757" fill="#084487" width="3.33" height="3.275"/>
	<rect x="71.67" y="5.757" fill="#084487" width="3.33" height="3.275"/>
</g>
</svg>
