<?xml version="1.0" encoding="utf-8"?>
<!-- Generator: Adobe Illustrator 17.0.0, SVG Export Plug-In . SVG Version: 6.00 Build 0)  -->
<!DOCTYPE svg PUBLIC "-//W3C//DTD SVG 1.1//EN" "http://www.w3.org/Graphics/SVG/1.1/DTD/svg11.dtd">
<svg version="1.1" id="Layer_2" xmlns="http://www.w3.org/2000/svg" xmlns:xlink="http://www.w3.org/1999/xlink" x="0px" y="0px"
	 width="22.329px" height="9.305px" viewBox="1.385 7.807 22.329 9.305" enable-background="new 1.385 7.807 22.329 9.305"
	 xml:space="preserve">
<g>
	<g>
		<path fill="#004891" d="M14.008,12.213l0.04-0.199h-0.262h-0.102h-3.562c-0.228,0-0.324,0.046-0.432,0.262l-0.211,0.478
			l-0.08,0.199h4.182c0.125,0,0.279-0.085,0.307-0.199l0.068-0.33l0,0l0.017-0.074L14.008,12.213L14.008,12.213z"/>
		<path fill="#004891" d="M13.524,13.368H9.49c-0.199,0-0.284,0.046-0.381,0.262l-0.006,0.011l0,0l-0.489,1.457
			c0,0.006-0.006,0.011-0.006,0.017l-0.182,0.535l-0.068,0.222l0,0v0.006h1.161v-0.006h3.198h0.358h0.233l0.091-0.535l0.051-0.284
			c0-0.119-0.085-0.222-0.193-0.222H9.815l0.142-0.506h3.044h0.592l0.097-0.535l0.04-0.216
			C13.723,13.459,13.632,13.368,13.524,13.368z"/>
	</g>
	<path fill="#004891" d="M14.708,8.401L14.708,8.401l-0.046,0.245c-0.028,0.125-0.188,0.222-0.307,0.222h-3.442l0.08-0.222
		l0.211-0.535c0.114-0.239,0.211-0.29,0.432-0.29h2.919c0,0,0,0,0.006,0h0.262L14.708,8.401z M14.298,9.271h-3.254
		c-0.199,0-0.279,0.046-0.381,0.25l0,0l0,0v0.006L10.48,9.999l-0.068,0.193h0.006l-0.387,1.036l-0.08,0.205l-0.068,0.193h0.956l0,0
		h3.015c0.006,0,0.011,0,0.023,0h0.211l0.034-0.188v-0.006l0.102-0.535c0-0.108-0.085-0.193-0.193-0.193h-2.833l0.199-0.512h2.52
		l0,0h0.193h0.017l0,0h0.233l0.068-0.353l0.074-0.376C14.497,9.362,14.406,9.271,14.298,9.271z"/>
	<g>
		<path fill="#004891" d="M7.624,10.54l-1.309,3.556L5.69,14.067c-0.034,0-0.068-0.006-0.102-0.006
			c-0.626,0-1.183-0.239-1.565-0.671c-0.37-0.41-0.535-0.95-0.467-1.519c0.131-1.132,1.166-2.082,2.35-2.173l0,0l1.115,0.017
			c0.165,0,0.364-0.142,0.438-0.313l0.347-0.825l0,0l0.006-0.023L8,8.099l0.102-0.267L6.384,7.809c-0.051-0.006-0.108,0-0.165,0.006
			c-0.04,0-0.085,0.006-0.125,0.006c-1.132,0-2.236,0.421-3.124,1.178c-0.876,0.768-1.434,1.781-1.559,2.868
			c-0.114,0.979,0.148,1.929,0.734,2.663c0.609,0.762,1.513,1.24,2.543,1.354c0.006,0,0.29,0.023,0.29,0.023l0.671,0.006l0,0h1.9
			c0.188,0,0.358-0.119,0.427-0.296l1.957-5.365H8.051C7.857,10.244,7.687,10.364,7.624,10.54z M7.544,15.427H6.321l1.713-4.654
			H9.24L7.544,15.427z"/>
		<path fill="#004891" d="M8.933,7.843c-0.188,0-0.358,0.119-0.421,0.296l-0.58,1.57h1.9c0.188,0,0.358-0.119,0.427-0.302
			l0.552-1.565H8.933z M9.826,9.231H8.603l0.336-0.916h1.212L9.826,9.231z"/>
	</g>
	<g>
		<path fill="#004891" d="M14.207,14.443h0.091l0.097-0.711h-0.091l0.017-0.114h0.313l-0.017,0.114h-0.091l-0.097,0.711h0.091
			l-0.017,0.114H14.19L14.207,14.443z"/>
		<path fill="#004891" d="M14.713,14.443h0.057c0.017,0,0.028-0.011,0.034-0.028l0.108-0.797h0.119l0.341,0.597
			c0.028,0.051,0.063,0.131,0.063,0.131l0,0c0,0,0-0.074,0.006-0.131l0.068-0.512c0.006-0.063,0.034-0.085,0.097-0.085h0.131
			l-0.017,0.114h-0.057c-0.017,0-0.028,0.011-0.034,0.028l-0.108,0.797h-0.119l-0.341-0.597c-0.028-0.051-0.063-0.131-0.063-0.131
			l0,0c0,0,0,0.074-0.011,0.131l-0.068,0.512c-0.006,0.063-0.034,0.085-0.097,0.085h-0.137L14.713,14.443z"/>
		<path fill="#004891" d="M16.221,13.726h-0.188c-0.017,0-0.028,0.011-0.034,0.028l-0.006,0.063h-0.119l0.017-0.125
			c0.006-0.063,0.028-0.08,0.091-0.08h0.649c0.063,0,0.08,0.023,0.068,0.08l-0.017,0.125h-0.119l0.006-0.063
			c0-0.023-0.006-0.028-0.023-0.028h-0.188l-0.114,0.831h-0.131L16.221,13.726z"/>
		<path fill="#004891" d="M16.938,13.726h-0.085l0.017-0.114h0.552c0.063,0,0.08,0.023,0.074,0.085l-0.017,0.119h-0.119l0.006-0.063
			c0-0.023-0.006-0.028-0.023-0.028h-0.273l-0.04,0.296h0.33l-0.017,0.114h-0.33l-0.034,0.273c0,0.017,0.006,0.028,0.023,0.028
			h0.273c0.017,0,0.028-0.011,0.034-0.028l0.006-0.063h0.125l-0.017,0.119c-0.006,0.063-0.034,0.085-0.097,0.085h-0.421
			c-0.063,0-0.08-0.023-0.074-0.085L16.938,13.726z"/>
		<path fill="#004891" d="M18.184,13.595c0.228,0,0.319,0.114,0.319,0.114l-0.091,0.097c0,0-0.091-0.091-0.245-0.091
			c-0.188,0-0.358,0.154-0.387,0.358c-0.028,0.222,0.102,0.364,0.29,0.364c0.171,0,0.284-0.119,0.284-0.119l0.011-0.097
			c0-0.017-0.006-0.028-0.023-0.028h-0.057l0.017-0.114h0.125c0.063,0,0.08,0.023,0.074,0.085l-0.051,0.381h-0.119l0.006-0.057
			c0-0.023,0.006-0.04,0.006-0.04l0,0c0,0-0.119,0.114-0.307,0.114c-0.25,0-0.432-0.199-0.393-0.489
			C17.678,13.806,17.916,13.595,18.184,13.595z"/>
		<path fill="#004891" d="M18.844,13.726h-0.085l0.017-0.114h0.41c0.165,0,0.267,0.102,0.245,0.279
			c-0.023,0.159-0.137,0.233-0.205,0.25l0,0c0,0,0.023,0.011,0.034,0.046l0.085,0.228c0.011,0.028,0.028,0.028,0.063,0.028h0.017
			l-0.017,0.114h-0.068c-0.074,0-0.097-0.011-0.119-0.068l-0.097-0.256c-0.017-0.046-0.034-0.051-0.085-0.051h-0.125l-0.051,0.376
			H18.73L18.844,13.726z M19.106,14.067c0.102,0,0.171-0.068,0.182-0.171c0.017-0.108-0.04-0.165-0.137-0.165h-0.176l-0.046,0.336
			H19.106z"/>
		<path fill="#004891" d="M19.549,14.443h0.017c0.023,0,0.034-0.006,0.046-0.028l0.404-0.797h0.142l0.188,0.797
			c0.006,0.023,0.017,0.028,0.04,0.028h0.023l-0.017,0.114h-0.074c-0.068,0-0.085-0.017-0.097-0.08l-0.046-0.193h-0.347
			l-0.097,0.193c-0.028,0.063-0.057,0.08-0.119,0.08h-0.074L19.549,14.443z M20.152,14.17l-0.063-0.284
			c-0.011-0.051-0.017-0.131-0.017-0.131l0,0c0,0-0.028,0.085-0.051,0.131l-0.142,0.284H20.152z"/>
		<path fill="#004891" d="M21.12,13.595c0.125,0,0.347,0.051,0.324,0.205l-0.011,0.091h-0.125l0.006-0.051
			c0.011-0.08-0.119-0.119-0.211-0.119c-0.188,0-0.358,0.142-0.387,0.353c-0.028,0.205,0.097,0.37,0.284,0.37
			c0.188,0,0.319-0.125,0.319-0.125l0.057,0.097c0,0-0.148,0.154-0.381,0.159l-0.017,0.051c0.051,0.006,0.091,0.04,0.085,0.097
			c-0.011,0.085-0.085,0.114-0.154,0.114c-0.046,0-0.074-0.011-0.074-0.011l0.011-0.08c0,0,0.023,0.011,0.057,0.011
			s0.063-0.011,0.068-0.04c0.006-0.028-0.023-0.04-0.063-0.04c-0.011,0-0.023,0-0.023,0l0.04-0.102
			c-0.25-0.028-0.387-0.233-0.353-0.495C20.619,13.806,20.852,13.595,21.12,13.595z"/>
		<path fill="#004891" d="M21.529,14.443h0.017c0.023,0,0.034-0.006,0.046-0.028l0.404-0.797h0.142l0.188,0.797
			c0.006,0.023,0.017,0.028,0.04,0.028h0.023l-0.017,0.114h-0.074c-0.068,0-0.085-0.017-0.097-0.08l-0.046-0.193h-0.347
			l-0.097,0.193c-0.028,0.063-0.057,0.08-0.119,0.08h-0.074L21.529,14.443z M22.013,13.373c0.091,0,0.102,0.091,0.159,0.091
			c0.04,0,0.063-0.046,0.063-0.085h0.085c-0.017,0.108-0.068,0.171-0.159,0.171s-0.102-0.091-0.159-0.091
			c-0.04,0-0.057,0.046-0.063,0.085h-0.091C21.865,13.43,21.922,13.373,22.013,13.373z M22.132,14.17l-0.063-0.284
			c-0.011-0.051-0.017-0.131-0.017-0.131l0,0c0,0-0.028,0.085-0.051,0.131l-0.142,0.284H22.132z"/>
		<path fill="#004891" d="M23.111,13.595c0.273,0,0.455,0.211,0.421,0.484c-0.04,0.279-0.279,0.495-0.552,0.495
			s-0.455-0.216-0.415-0.495C22.599,13.806,22.838,13.595,23.111,13.595z M22.997,14.443c0.193,0,0.37-0.159,0.398-0.37
			c0.028-0.199-0.108-0.358-0.296-0.358c-0.193,0-0.364,0.154-0.393,0.358C22.673,14.284,22.804,14.443,22.997,14.443z"/>
	</g>
	<g>
		<path fill="#004891" d="M14.469,12.543L14.469,12.543c0.034-0.267,0.267-0.489,0.535-0.489c0.171,0,0.262,0.063,0.347,0.148
			l-0.057,0.051c-0.074-0.08-0.159-0.137-0.296-0.137c-0.228,0-0.421,0.182-0.455,0.421l0,0c-0.034,0.239,0.114,0.421,0.341,0.421
			c0.137,0,0.233-0.051,0.341-0.148l0.04,0.046c-0.114,0.097-0.228,0.165-0.398,0.165C14.599,13.026,14.429,12.81,14.469,12.543z"/>
		<path fill="#004891" d="M15.698,12.07h0.671l-0.011,0.063H15.76l-0.051,0.37h0.541l-0.011,0.063h-0.535l-0.051,0.376h0.609
			l-0.011,0.063h-0.677L15.698,12.07z"/>
		<path fill="#004891" d="M16.733,12.07h0.068l0.541,0.819l0.108-0.819h0.068l-0.131,0.939h-0.051l-0.552-0.836l-0.114,0.836h-0.068
			L16.733,12.07z"/>
		<path fill="#004891" d="M18.184,12.133h-0.33l0.011-0.063h0.728l-0.011,0.063h-0.33l-0.119,0.876h-0.068L18.184,12.133z"/>
		<path fill="#004891" d="M18.935,12.07h0.393c0.114,0,0.205,0.034,0.25,0.091c0.04,0.046,0.057,0.108,0.046,0.176l0,0
			c-0.023,0.159-0.148,0.245-0.313,0.267l0.262,0.404h-0.091l-0.245-0.393h-0.307l-0.051,0.393H18.81L18.935,12.07z M19.254,12.554
			c0.159,0,0.284-0.08,0.302-0.216l0,0c0.017-0.125-0.074-0.205-0.245-0.205h-0.319l-0.057,0.421H19.254z"/>
		<path fill="#004891" d="M19.936,12.543L19.936,12.543c0.034-0.262,0.256-0.489,0.541-0.489s0.444,0.228,0.404,0.484l0,0
			c-0.034,0.256-0.256,0.489-0.541,0.489S19.902,12.799,19.936,12.543z M20.807,12.543L20.807,12.543
			c0.034-0.233-0.114-0.427-0.347-0.427c-0.233,0-0.427,0.188-0.455,0.421l0,0c-0.034,0.233,0.114,0.421,0.347,0.421
			C20.585,12.964,20.778,12.776,20.807,12.543z"/>
		<path fill="#004891" d="M21.854,12.07h0.313c0.296,0,0.472,0.205,0.438,0.467l0,0c-0.034,0.267-0.267,0.472-0.563,0.472h-0.313
			L21.854,12.07z M21.916,12.133l-0.108,0.814h0.245c0.262,0,0.449-0.176,0.484-0.404l0,0c0.028-0.222-0.108-0.404-0.376-0.404
			h-0.245V12.133z"/>
		<path fill="#004891" d="M23.043,12.07h0.671l-0.011,0.063h-0.597l-0.051,0.37h0.541l-0.011,0.063h-0.541l-0.051,0.376H23.6
			l-0.011,0.063h-0.677L23.043,12.07z"/>
	</g>
	<g>
		<path fill="#004891" d="M13.985,15.171h0.489l-0.006,0.046H14.03l-0.034,0.273h0.393l-0.006,0.046h-0.393l-0.04,0.279h0.444
			l-0.006,0.046h-0.495L13.985,15.171z"/>
		<path fill="#004891" d="M14.645,15.171h0.046l0.222,0.41l0.33-0.41h0.046l-0.091,0.688h-0.051l0.08-0.597l-0.324,0.398h-0.006
			l-0.216-0.398l-0.08,0.597h-0.051L14.645,15.171z"/>
		<path fill="#004891" d="M15.498,15.171h0.25c0.154,0,0.245,0.08,0.228,0.211l0,0c-0.017,0.142-0.154,0.222-0.296,0.222h-0.188
			l-0.034,0.256h-0.051L15.498,15.171z M15.686,15.558c0.125,0,0.222-0.068,0.239-0.171l0,0c0.017-0.108-0.063-0.165-0.188-0.165
			h-0.193l-0.046,0.336H15.686z"/>
		<path fill="#004891" d="M16.158,15.171h0.29c0.085,0,0.148,0.028,0.182,0.068c0.028,0.034,0.04,0.08,0.034,0.125l0,0
			c-0.017,0.114-0.108,0.182-0.228,0.199l0.188,0.296h-0.063l-0.182-0.284h-0.228l-0.04,0.284h-0.051L16.158,15.171z M16.392,15.53
			c0.114,0,0.211-0.057,0.222-0.159l0,0c0.011-0.091-0.051-0.148-0.176-0.148h-0.233l-0.04,0.307
			C16.164,15.53,16.392,15.53,16.392,15.53z"/>
		<path fill="#004891" d="M16.87,15.171h0.489l-0.006,0.046h-0.438l-0.034,0.273h0.393l-0.006,0.046h-0.393l-0.04,0.279h0.444
			l-0.006,0.046h-0.495L16.87,15.171z"/>
		<path fill="#004891" d="M17.404,15.757l0.04-0.04c0.068,0.068,0.131,0.102,0.233,0.102c0.102,0,0.182-0.057,0.193-0.137l0,0
			c0.011-0.074-0.023-0.114-0.176-0.148c-0.159-0.034-0.222-0.091-0.205-0.193l0,0c0.011-0.102,0.119-0.182,0.245-0.182
			c0.102,0,0.165,0.028,0.222,0.085l-0.034,0.04c-0.057-0.057-0.119-0.08-0.193-0.08c-0.102,0-0.176,0.057-0.188,0.131l0,0
			c-0.011,0.074,0.023,0.119,0.182,0.148c0.154,0.034,0.216,0.091,0.199,0.188l0,0c-0.017,0.114-0.119,0.188-0.256,0.188
			C17.558,15.871,17.478,15.831,17.404,15.757z"/>
		<path fill="#004891" d="M18.406,15.166h0.051l0.228,0.694h-0.057l-0.063-0.193h-0.404l-0.114,0.193h-0.051L18.406,15.166z
			 M18.548,15.621l-0.125-0.398l-0.233,0.398H18.548z"/>
		<path fill="#004891" d="M18.798,15.541h0.262l-0.006,0.057h-0.262L18.798,15.541z"/>
		<path fill="#004891" d="M19.282,15.171h0.489l-0.006,0.046h-0.438l-0.034,0.273h0.393l-0.006,0.046h-0.393l-0.04,0.279h0.444
			l-0.006,0.046h-0.495L19.282,15.171z"/>
		<path fill="#004891" d="M19.817,15.757l0.04-0.04c0.068,0.068,0.131,0.102,0.233,0.102c0.102,0,0.182-0.057,0.193-0.137l0,0
			c0.011-0.074-0.023-0.114-0.176-0.148c-0.159-0.034-0.222-0.091-0.205-0.193l0,0c0.011-0.102,0.119-0.182,0.245-0.182
			c0.102,0,0.165,0.028,0.222,0.085l-0.04,0.04c-0.057-0.057-0.119-0.08-0.193-0.08c-0.102,0-0.176,0.057-0.188,0.131l0,0
			c-0.011,0.074,0.023,0.119,0.182,0.148c0.154,0.034,0.216,0.091,0.199,0.188l0,0c-0.017,0.114-0.119,0.188-0.256,0.188
			C19.97,15.871,19.891,15.831,19.817,15.757z"/>
		<path fill="#004891" d="M20.494,15.518L20.494,15.518c0.028-0.199,0.193-0.358,0.393-0.358c0.125,0,0.188,0.046,0.25,0.108
			l-0.04,0.04c-0.051-0.057-0.114-0.102-0.216-0.102c-0.165,0-0.307,0.137-0.33,0.307l0,0c-0.023,0.176,0.085,0.307,0.25,0.307
			c0.097,0,0.171-0.04,0.25-0.108l0.028,0.034c-0.08,0.074-0.165,0.119-0.29,0.119C20.591,15.871,20.465,15.717,20.494,15.518z"/>
		<path fill="#004891" d="M21.199,15.518L21.199,15.518c0.028-0.188,0.188-0.358,0.398-0.358c0.211,0,0.324,0.165,0.296,0.353l0,0
			c-0.023,0.188-0.188,0.358-0.393,0.358C21.285,15.871,21.171,15.706,21.199,15.518z M21.837,15.518L21.837,15.518
			c0.023-0.171-0.08-0.313-0.25-0.313c-0.171,0-0.313,0.137-0.336,0.307l0,0c-0.023,0.171,0.08,0.307,0.25,0.307
			C21.672,15.826,21.814,15.689,21.837,15.518z"/>
		<path fill="#004891" d="M22.11,15.171h0.051l-0.085,0.643h0.404l-0.006,0.046h-0.455L22.11,15.171z"/>
		<path fill="#004891" d="M22.98,15.166h0.051l0.228,0.694h-0.057l-0.063-0.193h-0.404l-0.114,0.193h-0.051L22.98,15.166z
			 M23.128,15.621l-0.125-0.398l-0.233,0.398H23.128z"/>
	</g>
	<g>
		<path fill="#004891" d="M8.859,16.531H8.79l0.023-0.154h0.353c0.142,0,0.222,0.102,0.205,0.25
			c-0.023,0.148-0.131,0.256-0.273,0.256H8.99l-0.028,0.228H8.779L8.859,16.531z M9.081,16.73c0.057,0,0.091-0.04,0.102-0.102
			c0.006-0.057-0.017-0.097-0.074-0.097H9.035L9.007,16.73H9.081z"/>
		<path fill="#004891" d="M9.365,16.958h0.017c0.017,0,0.023-0.006,0.028-0.023l0.273-0.558h0.188l0.125,0.558
			c0.006,0.017,0.006,0.023,0.023,0.023h0.017l-0.023,0.154H9.894c-0.051,0-0.068-0.017-0.08-0.057l-0.017-0.097H9.587l-0.028,0.091
			c-0.023,0.046-0.046,0.057-0.097,0.057H9.342L9.365,16.958z M9.797,16.804l-0.023-0.119c-0.006-0.046-0.011-0.119-0.011-0.119l0,0
			c0,0-0.023,0.074-0.046,0.119l-0.051,0.119H9.797z"/>
		<path fill="#004891" d="M10.275,16.531h-0.068l0.023-0.154h0.341c0.142,0,0.233,0.085,0.211,0.228
			c-0.017,0.148-0.131,0.188-0.131,0.188l0,0c0,0,0.028,0.011,0.04,0.046l0.034,0.085c0.006,0.023,0.028,0.023,0.046,0.023h0.011
			L10.759,17.1h-0.102c-0.051,0-0.08-0.011-0.097-0.057l-0.063-0.165c-0.011-0.023-0.023-0.028-0.063-0.028h-0.023l-0.034,0.245
			h-0.182L10.275,16.531z M10.497,16.707c0.057,0,0.085-0.034,0.097-0.091c0.011-0.057-0.017-0.085-0.068-0.085h-0.068l-0.023,0.176
			H10.497z"/>
		<path fill="#004891" d="M10.878,16.958h0.017c0.017,0,0.023-0.006,0.028-0.023l0.273-0.558h0.188l0.125,0.558
			c0.006,0.017,0.006,0.023,0.023,0.023h0.017l-0.023,0.154h-0.119c-0.051,0-0.068-0.017-0.08-0.057l-0.017-0.097H11.1l-0.046,0.097
			c-0.023,0.046-0.046,0.057-0.097,0.057h-0.119L10.878,16.958z M11.311,16.804l-0.023-0.119c-0.006-0.046-0.011-0.119-0.011-0.119
			l0,0c0,0-0.023,0.074-0.046,0.119l-0.051,0.119H11.311z"/>
		<path fill="#004891" d="M11.669,16.958h0.046c0.017,0,0.023-0.006,0.023-0.023l0.074-0.558h0.165l0.159,0.313
			c0.023,0.046,0.046,0.108,0.046,0.108l0,0c0,0,0-0.063,0.006-0.108l0.034-0.239c0.006-0.051,0.034-0.074,0.085-0.074h0.176
			l-0.023,0.154h-0.046c-0.017,0-0.023,0.006-0.028,0.023l-0.074,0.558h-0.165l-0.159-0.313c-0.023-0.046-0.046-0.108-0.046-0.108
			l0,0c0,0,0,0.063-0.006,0.108l-0.034,0.239c-0.006,0.051-0.034,0.074-0.085,0.074h-0.176L11.669,16.958z"/>
		<path fill="#004891" d="M12.511,16.958h0.017c0.017,0,0.023-0.006,0.028-0.023l0.273-0.558h0.188l0.125,0.558
			c0.006,0.017,0.006,0.023,0.023,0.023h0.017l-0.023,0.154h-0.119c-0.051,0-0.068-0.017-0.08-0.057l-0.017-0.097h-0.199
			l-0.046,0.097c-0.023,0.046-0.046,0.057-0.097,0.057h-0.119L12.511,16.958z M12.944,16.804l-0.023-0.119
			c-0.006-0.046-0.011-0.119-0.011-0.119l0,0c0,0-0.023,0.074-0.046,0.119l-0.051,0.119H12.944z M12.978,16.178h0.159l-0.142,0.154
			H12.87L12.978,16.178z"/>
	</g>
</g>
</svg>
