<?xml version="1.0" encoding="utf-8"?>
<!-- Generator: Adobe Illustrator 17.0.0, SVG Export Plug-In . SVG Version: 6.00 Build 0)  -->
<!DOCTYPE svg PUBLIC "-//W3C//DTD SVG 1.1//EN" "http://www.w3.org/Graphics/SVG/1.1/DTD/svg11.dtd">
<svg version="1.1" id="Layer_2" xmlns="http://www.w3.org/2000/svg" xmlns:xlink="http://www.w3.org/1999/xlink" x="0px" y="0px"
	 width="22.329px" height="9.305px" viewBox="0 0 22.329 9.305" enable-background="new 0 0 22.329 9.305" xml:space="preserve">
<g>
	<g>
		<path fill="#FFFFFF" d="M12.623,4.406l0.04-0.199h-0.262h-0.102H8.737c-0.228,0-0.324,0.046-0.432,0.262L8.094,4.947l-0.08,0.199
			h4.182c0.125,0,0.279-0.085,0.307-0.199l0.068-0.33l0,0l0.017-0.074L12.623,4.406L12.623,4.406z"/>
		<path fill="#FFFFFF" d="M12.139,5.561H8.105c-0.199,0-0.284,0.046-0.381,0.262L7.718,5.834l0,0L7.229,7.291
			c0,0.006-0.006,0.011-0.006,0.017L7.041,7.843L6.973,8.065l0,0v0.006h1.161V8.065h3.198h0.358h0.233l0.091-0.535l0.051-0.284
			c0-0.119-0.085-0.222-0.193-0.222H8.43l0.142-0.506h3.044h0.592l0.097-0.535l0.04-0.216C12.338,5.652,12.247,5.561,12.139,5.561z"
			/>
	</g>
	<path fill="#FFFFFF" d="M13.323,0.594L13.323,0.594l-0.046,0.245c-0.028,0.125-0.188,0.222-0.307,0.222H9.528l0.08-0.222
		l0.211-0.535c0.114-0.239,0.211-0.29,0.432-0.29h2.919c0,0,0,0,0.006,0h0.262L13.323,0.594z M12.913,1.464H9.659
		c-0.199,0-0.279,0.046-0.381,0.25l0,0l0,0V1.72L9.095,2.192L9.027,2.385h0.006L8.646,3.421l-0.08,0.205L8.498,3.819h0.956l0,0
		h3.015c0.006,0,0.011,0,0.023,0h0.211l0.034-0.188V3.625l0.102-0.535c0-0.108-0.085-0.193-0.193-0.193H9.813l0.199-0.512h2.52l0,0
		h0.193h0.017l0,0h0.233l0.068-0.353l0.074-0.376C13.112,1.555,13.021,1.464,12.913,1.464z"/>
	<g>
		<path fill="#FFFFFF" d="M6.239,2.733L4.93,6.289L4.305,6.26c-0.034,0-0.068-0.006-0.102-0.006c-0.626,0-1.183-0.239-1.565-0.671
			c-0.37-0.41-0.535-0.95-0.467-1.519c0.131-1.132,1.166-2.082,2.35-2.173l0,0l1.115,0.017c0.165,0,0.364-0.142,0.438-0.313
			L6.421,0.77l0,0l0.006-0.023l0.188-0.455l0.102-0.267L4.999,0.002c-0.051-0.006-0.108,0-0.165,0.006
			c-0.04,0-0.085,0.006-0.125,0.006c-1.132,0-2.236,0.421-3.124,1.178C0.709,1.96,0.151,2.973,0.026,4.06
			C-0.088,5.039,0.174,5.989,0.76,6.723c0.609,0.762,1.513,1.24,2.543,1.354c0.006,0,0.29,0.023,0.29,0.023l0.671,0.006l0,0h1.9
			c0.188,0,0.358-0.119,0.427-0.296l1.957-5.365H6.666C6.472,2.437,6.302,2.557,6.239,2.733z M6.159,7.62H4.936l1.713-4.654h1.206
			L6.159,7.62z"/>
		<path fill="#FFFFFF" d="M7.548,0.036c-0.188,0-0.358,0.119-0.421,0.296l-0.58,1.57h1.9c0.188,0,0.358-0.119,0.427-0.302
			l0.552-1.565H7.548V0.036z M8.441,1.424H7.218l0.336-0.916h1.212L8.441,1.424z"/>
	</g>
	<g>
		<path fill="#FFFFFF" d="M12.822,6.636h0.091l0.097-0.711h-0.091l0.017-0.114h0.313l-0.017,0.114h-0.091l-0.097,0.711h0.091
			L13.118,6.75h-0.313L12.822,6.636z"/>
		<path fill="#FFFFFF" d="M13.328,6.636h0.057c0.017,0,0.028-0.011,0.034-0.028l0.108-0.797h0.119l0.341,0.597
			c0.028,0.051,0.063,0.131,0.063,0.131l0,0c0,0,0-0.074,0.006-0.131l0.068-0.512c0.006-0.063,0.034-0.085,0.097-0.085h0.131
			l-0.017,0.114h-0.057c-0.017,0-0.028,0.011-0.034,0.028L14.136,6.75h-0.119l-0.341-0.597c-0.028-0.051-0.063-0.131-0.063-0.131
			l0,0c0,0,0,0.074-0.011,0.131l-0.068,0.512C13.528,6.728,13.5,6.75,13.437,6.75H13.3L13.328,6.636z"/>
		<path fill="#FFFFFF" d="M14.836,5.919h-0.188c-0.017,0-0.028,0.011-0.034,0.028L14.608,6.01h-0.119l0.017-0.125
			c0.006-0.063,0.028-0.08,0.091-0.08h0.649c0.063,0,0.08,0.023,0.068,0.08L15.297,6.01h-0.119l0.006-0.063
			c0-0.023-0.006-0.028-0.023-0.028h-0.188L14.859,6.75h-0.131L14.836,5.919z"/>
		<path fill="#FFFFFF" d="M15.553,5.919h-0.085l0.017-0.114h0.552c0.063,0,0.08,0.023,0.074,0.085l-0.017,0.119h-0.119l0.006-0.063
			c0-0.023-0.006-0.028-0.023-0.028h-0.273l-0.04,0.296h0.33l-0.017,0.114h-0.33l-0.034,0.273c0,0.017,0.006,0.028,0.023,0.028
			h0.273c0.017,0,0.028-0.011,0.034-0.028l0.006-0.063h0.125l-0.017,0.119c-0.006,0.063-0.034,0.085-0.097,0.085H15.52
			c-0.063,0-0.08-0.023-0.074-0.085L15.553,5.919z"/>
		<path fill="#FFFFFF" d="M16.799,5.788c0.228,0,0.319,0.114,0.319,0.114l-0.091,0.097c0,0-0.091-0.091-0.245-0.091
			c-0.188,0-0.358,0.154-0.387,0.358c-0.028,0.222,0.102,0.364,0.29,0.364c0.171,0,0.284-0.119,0.284-0.119l0.011-0.097
			c0-0.017-0.006-0.028-0.023-0.028H16.9l0.017-0.114h0.125c0.063,0,0.08,0.023,0.074,0.085l-0.051,0.381h-0.119l0.006-0.057
			c0-0.023,0.006-0.04,0.006-0.04l0,0c0,0-0.119,0.114-0.307,0.114c-0.25,0-0.432-0.199-0.393-0.489
			C16.293,5.999,16.531,5.788,16.799,5.788z"/>
		<path fill="#FFFFFF" d="M17.459,5.919h-0.085l0.017-0.114h0.41c0.165,0,0.267,0.102,0.245,0.279
			c-0.023,0.159-0.137,0.233-0.205,0.25l0,0c0,0,0.023,0.011,0.034,0.046l0.085,0.228c0.011,0.028,0.028,0.028,0.063,0.028h0.017
			L18.023,6.75h-0.068c-0.074,0-0.097-0.011-0.119-0.068l-0.097-0.256c-0.017-0.046-0.034-0.051-0.085-0.051h-0.125l-0.051,0.376
			h-0.133L17.459,5.919z M17.721,6.26c0.102,0,0.171-0.068,0.182-0.171c0.017-0.108-0.04-0.165-0.137-0.165H17.59L17.544,6.26
			H17.721z"/>
		<path fill="#FFFFFF" d="M18.164,6.636h0.017c0.023,0,0.034-0.006,0.046-0.028l0.404-0.797h0.142l0.188,0.797
			c0.006,0.023,0.017,0.028,0.04,0.028h0.023L19.007,6.75h-0.074c-0.068,0-0.085-0.017-0.097-0.08L18.79,6.477h-0.347L18.346,6.67
			c-0.028,0.063-0.057,0.08-0.119,0.08h-0.074L18.164,6.636z M18.767,6.363l-0.063-0.284c-0.011-0.051-0.017-0.131-0.017-0.131l0,0
			c0,0-0.028,0.085-0.051,0.131l-0.142,0.284H18.767z"/>
		<path fill="#FFFFFF" d="M19.735,5.788c0.125,0,0.347,0.051,0.324,0.205l-0.011,0.091h-0.125l0.006-0.051
			c0.011-0.08-0.119-0.119-0.211-0.119c-0.188,0-0.358,0.142-0.387,0.353c-0.028,0.205,0.097,0.37,0.284,0.37
			c0.188,0,0.319-0.125,0.319-0.125l0.057,0.097c0,0-0.148,0.154-0.381,0.159l-0.017,0.051c0.051,0.006,0.091,0.04,0.085,0.097
			c-0.011,0.085-0.085,0.114-0.154,0.114c-0.046,0-0.074-0.011-0.074-0.011l0.011-0.08c0,0,0.023,0.011,0.057,0.011
			s0.063-0.011,0.068-0.04c0.006-0.028-0.023-0.04-0.063-0.04c-0.011,0-0.023,0-0.023,0l0.04-0.102
			c-0.25-0.028-0.387-0.233-0.353-0.495C19.234,5.999,19.467,5.788,19.735,5.788z"/>
		<path fill="#FFFFFF" d="M20.144,6.636h0.017c0.023,0,0.034-0.006,0.046-0.028l0.404-0.797h0.142l0.188,0.797
			c0.006,0.023,0.017,0.028,0.04,0.028h0.023L20.987,6.75h-0.074c-0.068,0-0.085-0.017-0.097-0.08L20.77,6.477h-0.347L20.326,6.67
			c-0.028,0.063-0.057,0.08-0.119,0.08h-0.074L20.144,6.636z M20.628,5.566c0.091,0,0.102,0.091,0.159,0.091
			c0.04,0,0.063-0.046,0.063-0.085h0.085c-0.017,0.108-0.068,0.171-0.159,0.171s-0.102-0.091-0.159-0.091
			c-0.04,0-0.057,0.046-0.063,0.085h-0.091C20.48,5.623,20.537,5.566,20.628,5.566z M20.747,6.363l-0.063-0.284
			c-0.011-0.051-0.017-0.131-0.017-0.131l0,0c0,0-0.028,0.085-0.051,0.131l-0.142,0.284H20.747z"/>
		<path fill="#FFFFFF" d="M21.726,5.788c0.273,0,0.455,0.211,0.421,0.484c-0.04,0.279-0.279,0.495-0.552,0.495
			S21.14,6.551,21.18,6.272C21.214,5.999,21.453,5.788,21.726,5.788z M21.612,6.636c0.193,0,0.37-0.159,0.398-0.37
			c0.028-0.199-0.108-0.358-0.296-0.358c-0.193,0-0.364,0.154-0.393,0.358C21.288,6.477,21.419,6.636,21.612,6.636z"/>
	</g>
	<g>
		<path fill="#FFFFFF" d="M13.084,4.736L13.084,4.736c0.034-0.267,0.267-0.489,0.535-0.489c0.171,0,0.262,0.063,0.347,0.148
			l-0.057,0.051c-0.074-0.08-0.159-0.137-0.296-0.137c-0.228,0-0.421,0.182-0.455,0.421l0,0c-0.034,0.239,0.114,0.421,0.341,0.421
			c0.137,0,0.233-0.051,0.341-0.148l0.04,0.046c-0.114,0.097-0.228,0.165-0.398,0.165C13.214,5.219,13.044,5.003,13.084,4.736z"/>
		<path fill="#FFFFFF" d="M14.313,4.263h0.671l-0.011,0.063h-0.598l-0.051,0.37h0.541l-0.011,0.063h-0.535l-0.051,0.376h0.609
			l-0.011,0.063h-0.677L14.313,4.263z"/>
		<path fill="#FFFFFF" d="M15.348,4.263h0.068l0.541,0.819l0.108-0.819h0.068l-0.131,0.939h-0.051l-0.552-0.836l-0.114,0.836h-0.068
			L15.348,4.263z"/>
		<path fill="#FFFFFF" d="M16.799,4.326h-0.33l0.011-0.063h0.728l-0.011,0.063h-0.33l-0.119,0.876H16.68L16.799,4.326z"/>
		<path fill="#FFFFFF" d="M17.55,4.263h0.393c0.114,0,0.205,0.034,0.25,0.091c0.04,0.046,0.057,0.108,0.046,0.176l0,0
			c-0.023,0.159-0.148,0.245-0.313,0.267l0.262,0.404h-0.091l-0.245-0.393h-0.307l-0.051,0.393h-0.069L17.55,4.263z M17.869,4.747
			c0.159,0,0.284-0.08,0.302-0.216l0,0c0.017-0.125-0.074-0.205-0.245-0.205h-0.319L17.55,4.747
			C17.55,4.747,17.869,4.747,17.869,4.747z"/>
		<path fill="#FFFFFF" d="M18.551,4.736L18.551,4.736c0.034-0.262,0.256-0.489,0.541-0.489s0.444,0.228,0.404,0.484l0,0
			C19.462,4.987,19.24,5.22,18.955,5.22S18.517,4.992,18.551,4.736z M19.422,4.736L19.422,4.736
			c0.034-0.233-0.114-0.427-0.347-0.427S18.648,4.497,18.62,4.73l0,0c-0.034,0.233,0.114,0.421,0.347,0.421
			C19.2,5.157,19.393,4.969,19.422,4.736z"/>
		<path fill="#FFFFFF" d="M20.469,4.263h0.313c0.296,0,0.472,0.205,0.438,0.467l0,0c-0.034,0.267-0.267,0.472-0.563,0.472h-0.313
			L20.469,4.263z M20.531,4.326L20.423,5.14h0.245c0.262,0,0.449-0.176,0.484-0.404l0,0c0.028-0.222-0.108-0.404-0.376-0.404h-0.245
			V4.326z"/>
		<path fill="#FFFFFF" d="M21.658,4.263h0.671l-0.011,0.063h-0.597l-0.051,0.37h0.541L22.2,4.759h-0.541l-0.051,0.376h0.607
			l-0.011,0.063h-0.677L21.658,4.263z"/>
	</g>
	<g>
		<path fill="#FFFFFF" d="M12.6,7.364h0.489L13.083,7.41h-0.438l-0.034,0.273h0.393l-0.006,0.046h-0.393l-0.04,0.279h0.444
			l-0.006,0.046h-0.495L12.6,7.364z"/>
		<path fill="#FFFFFF" d="M13.26,7.364h0.046l0.222,0.41l0.33-0.41h0.046l-0.091,0.688h-0.051l0.08-0.597l-0.324,0.398h-0.006
			l-0.216-0.398l-0.08,0.597h-0.051L13.26,7.364z"/>
		<path fill="#FFFFFF" d="M14.113,7.364h0.25c0.154,0,0.245,0.08,0.228,0.211l0,0c-0.017,0.142-0.154,0.222-0.296,0.222h-0.188
			l-0.034,0.256h-0.051L14.113,7.364z M14.301,7.751c0.125,0,0.222-0.068,0.239-0.171l0,0c0.017-0.108-0.063-0.165-0.188-0.165
			h-0.193l-0.046,0.336H14.301z"/>
		<path fill="#FFFFFF" d="M14.773,7.364h0.29c0.085,0,0.148,0.028,0.182,0.068c0.028,0.034,0.04,0.08,0.034,0.125l0,0
			c-0.017,0.114-0.108,0.182-0.228,0.199l0.188,0.296h-0.063l-0.182-0.284h-0.228l-0.04,0.284h-0.051L14.773,7.364z M15.007,7.723
			c0.114,0,0.211-0.057,0.222-0.159l0,0c0.011-0.091-0.051-0.148-0.176-0.148H14.82l-0.04,0.307
			C14.779,7.723,15.007,7.723,15.007,7.723z"/>
		<path fill="#FFFFFF" d="M15.485,7.364h0.489L15.968,7.41H15.53l-0.034,0.273h0.393l-0.006,0.046H15.49l-0.04,0.279h0.444
			l-0.006,0.046h-0.495L15.485,7.364z"/>
		<path fill="#FFFFFF" d="M16.019,7.95l0.04-0.04c0.068,0.068,0.131,0.102,0.233,0.102s0.182-0.057,0.193-0.137l0,0
			c0.011-0.074-0.023-0.114-0.176-0.148c-0.159-0.034-0.222-0.091-0.205-0.193l0,0c0.011-0.102,0.119-0.182,0.245-0.182
			c0.102,0,0.165,0.028,0.222,0.085l-0.034,0.04c-0.057-0.057-0.119-0.08-0.193-0.08c-0.102,0-0.176,0.057-0.188,0.131l0,0
			c-0.011,0.074,0.023,0.119,0.182,0.148c0.154,0.034,0.216,0.091,0.199,0.188l0,0c-0.017,0.114-0.119,0.188-0.256,0.188
			C16.173,8.064,16.093,8.024,16.019,7.95z"/>
		<path fill="#FFFFFF" d="M17.021,7.359h0.051L17.3,8.053h-0.057L17.18,7.86h-0.404l-0.114,0.193h-0.051L17.021,7.359z
			 M17.163,7.814l-0.125-0.398l-0.233,0.398H17.163z"/>
		<path fill="#FFFFFF" d="M17.413,7.734h0.262l-0.006,0.057h-0.262L17.413,7.734z"/>
		<path fill="#FFFFFF" d="M17.897,7.364h0.489L18.38,7.41h-0.438l-0.034,0.273h0.393l-0.006,0.046h-0.393l-0.04,0.279h0.444
			L18.3,8.054h-0.495L17.897,7.364z"/>
		<path fill="#FFFFFF" d="M18.432,7.95l0.04-0.04c0.068,0.068,0.131,0.102,0.233,0.102s0.182-0.057,0.193-0.137l0,0
			c0.011-0.074-0.023-0.114-0.176-0.148c-0.159-0.034-0.222-0.091-0.205-0.193l0,0c0.011-0.102,0.119-0.182,0.245-0.182
			c0.102,0,0.165,0.028,0.222,0.085l-0.04,0.04c-0.057-0.057-0.119-0.08-0.193-0.08c-0.102,0-0.176,0.057-0.188,0.131l0,0
			c-0.011,0.074,0.023,0.119,0.182,0.148c0.154,0.034,0.216,0.091,0.199,0.188l0,0c-0.017,0.114-0.119,0.188-0.256,0.188
			C18.585,8.064,18.506,8.024,18.432,7.95z"/>
		<path fill="#FFFFFF" d="M19.109,7.711L19.109,7.711c0.028-0.199,0.193-0.358,0.393-0.358c0.125,0,0.188,0.046,0.25,0.108
			l-0.04,0.04c-0.051-0.057-0.114-0.102-0.216-0.102c-0.165,0-0.307,0.137-0.33,0.307l0,0c-0.023,0.176,0.085,0.307,0.25,0.307
			c0.097,0,0.171-0.04,0.25-0.108l0.028,0.034c-0.08,0.074-0.165,0.119-0.29,0.119C19.206,8.064,19.08,7.91,19.109,7.711z"/>
		<path fill="#FFFFFF" d="M19.814,7.711L19.814,7.711c0.028-0.188,0.188-0.358,0.398-0.358c0.211,0,0.324,0.165,0.296,0.353l0,0
			c-0.023,0.188-0.188,0.358-0.393,0.358C19.9,8.064,19.786,7.899,19.814,7.711z M20.452,7.711L20.452,7.711
			c0.023-0.171-0.08-0.313-0.25-0.313c-0.171,0-0.313,0.137-0.336,0.307l0,0c-0.023,0.171,0.08,0.307,0.25,0.307
			C20.287,8.019,20.429,7.882,20.452,7.711z"/>
		<path fill="#FFFFFF" d="M20.725,7.364h0.051l-0.085,0.643h0.404l-0.006,0.046h-0.455L20.725,7.364z"/>
		<path fill="#FFFFFF" d="M21.595,7.359h0.051l0.228,0.694h-0.057L21.754,7.86H21.35l-0.114,0.193h-0.051L21.595,7.359z
			 M21.743,7.814l-0.125-0.398l-0.233,0.398H21.743z"/>
	</g>
	<g>
		<path fill="#FFFFFF" d="M7.474,8.724H7.405L7.428,8.57h0.353c0.142,0,0.222,0.102,0.205,0.25C7.963,8.968,7.855,9.076,7.713,9.076
			H7.605L7.577,9.304H7.394L7.474,8.724z M7.696,8.923c0.057,0,0.091-0.04,0.102-0.102c0.006-0.057-0.017-0.097-0.074-0.097H7.65
			L7.622,8.923H7.696z"/>
		<path fill="#FFFFFF" d="M7.98,9.151h0.017c0.017,0,0.023-0.006,0.028-0.023L8.298,8.57h0.188l0.125,0.558
			c0.006,0.017,0.006,0.023,0.023,0.023h0.017L8.628,9.305H8.509c-0.051,0-0.068-0.017-0.08-0.057L8.412,9.151h-0.21L8.174,9.242
			C8.151,9.288,8.128,9.299,8.077,9.299h-0.12L7.98,9.151z M8.412,8.997L8.389,8.878C8.383,8.832,8.378,8.759,8.378,8.759l0,0
			c0,0-0.023,0.074-0.046,0.119L8.281,8.997H8.412z"/>
		<path fill="#FFFFFF" d="M8.89,8.724H8.822L8.845,8.57h0.341c0.142,0,0.233,0.085,0.211,0.228C9.38,8.946,9.266,8.986,9.266,8.986
			l0,0c0,0,0.028,0.011,0.04,0.046L9.34,9.117C9.346,9.14,9.368,9.14,9.386,9.14h0.011L9.374,9.293H9.272
			c-0.051,0-0.08-0.011-0.097-0.057L9.112,9.071C9.101,9.048,9.089,9.043,9.049,9.043H9.026L8.992,9.288H8.81L8.89,8.724z
			 M9.112,8.9c0.057,0,0.085-0.034,0.097-0.091C9.22,8.752,9.192,8.724,9.141,8.724H9.073L9.05,8.9C9.05,8.9,9.112,8.9,9.112,8.9z"
			/>
		<path fill="#FFFFFF" d="M9.493,9.151H9.51c0.017,0,0.023-0.006,0.028-0.023L9.811,8.57h0.188l0.125,0.558
			c0.006,0.017,0.006,0.023,0.023,0.023h0.017l-0.023,0.154h-0.119c-0.051,0-0.068-0.017-0.08-0.057L9.925,9.151h-0.21L9.669,9.248
			C9.646,9.294,9.623,9.305,9.572,9.305H9.453L9.493,9.151z M9.926,8.997L9.903,8.878C9.897,8.832,9.892,8.759,9.892,8.759l0,0
			c0,0-0.023,0.074-0.046,0.119L9.795,8.997H9.926z"/>
		<path fill="#FFFFFF" d="M10.284,9.151h0.046c0.017,0,0.023-0.006,0.023-0.023l0.074-0.558h0.165l0.159,0.313
			c0.023,0.046,0.046,0.108,0.046,0.108l0,0c0,0,0-0.063,0.006-0.108l0.034-0.239c0.006-0.051,0.034-0.074,0.085-0.074h0.176
			l-0.023,0.154h-0.046c-0.017,0-0.023,0.006-0.028,0.023l-0.074,0.558h-0.165l-0.159-0.313c-0.023-0.046-0.046-0.108-0.046-0.108
			l0,0c0,0,0,0.063-0.006,0.108l-0.034,0.239c-0.006,0.051-0.034,0.074-0.085,0.074h-0.176L10.284,9.151z"/>
		<path fill="#FFFFFF" d="M11.126,9.151h0.017c0.017,0,0.023-0.006,0.028-0.023l0.273-0.558h0.188l0.125,0.558
			c0.006,0.017,0.006,0.023,0.023,0.023h0.017l-0.023,0.154h-0.119c-0.051,0-0.068-0.017-0.08-0.057l-0.017-0.097h-0.199
			l-0.046,0.097c-0.023,0.046-0.046,0.057-0.097,0.057h-0.119L11.126,9.151z M11.559,8.997l-0.023-0.119
			c-0.006-0.046-0.011-0.119-0.011-0.119l0,0c0,0-0.023,0.074-0.046,0.119l-0.051,0.119H11.559z M11.593,8.371h0.159L11.61,8.525
			h-0.125L11.593,8.371z"/>
	</g>
</g>
</svg>
