<?xml version="1.0" encoding="utf-8"?>
<!-- Generator: Adobe Illustrator 17.0.0, SVG Export Plug-In . SVG Version: 6.00 Build 0)  -->
<!DOCTYPE svg PUBLIC "-//W3C//DTD SVG 1.1//EN" "http://www.w3.org/Graphics/SVG/1.1/DTD/svg11.dtd">
<svg version="1.1" id="Camada_1" xmlns="http://www.w3.org/2000/svg" xmlns:xlink="http://www.w3.org/1999/xlink" x="0px" y="0px"
	 width="100px" height="93.44px" viewBox="0 0 100 93.44" enable-background="new 0 0 100 93.44" xml:space="preserve">
<g>
	<path fill="#054387" d="M88.72,47.23l-10.88-16.8c-0.84-1.3-2.27-2.08-3.82-2.08h-48c-1.55,0-2.98,0.78-3.82,2.07l-10.91,16.8
		c-1.11,1.72-0.94,3.98,0.42,5.51L46.6,91.91c0.86,0.97,2.1,1.53,3.4,1.53c1.3,0,2.54-0.56,3.4-1.53l34.9-39.18
		C89.66,51.21,89.83,48.95,88.72,47.23L88.72,47.23z M71.81,32.26L62.66,46.4l-9.15-14.15H71.81z M59.07,48.05H40.92L50,34.02
		L59.07,48.05z M46.49,32.26l-9.13,14.11l-9.13-14.11H46.49z M24.62,33.86l9.17,14.18H15.41L24.62,33.86z M16.23,51.95h19.66
		l10.39,33.74L16.23,51.95z M50,84.48L39.98,51.95h20.04L50,84.48z M53.71,85.69l10.39-33.74h19.66L53.71,85.69z M66.25,48.05
		l9.17-14.17l9.18,14.17H66.25z M66.25,48.05"/>
	<path fill="#054387" d="M5.92,48.05H1.95C0.87,48.05,0,48.92,0,50c0,1.08,0.87,1.95,1.95,1.95h3.97c1.08,0,1.95-0.87,1.95-1.95
		C7.88,48.92,7,48.05,5.92,48.05L5.92,48.05z M5.92,48.05"/>
	<path fill="#054387" d="M98.05,48.05h-3.97c-1.08,0-1.95,0.87-1.95,1.95c0,1.08,0.87,1.95,1.95,1.95h3.97
		c1.08,0,1.95-0.87,1.95-1.95C100,48.92,99.13,48.05,98.05,48.05L98.05,48.05z M98.05,48.05"/>
	<path fill="#054387" d="M85.38,14.66c-0.76-0.76-2-0.76-2.76,0l-6.49,6.49c-0.76,0.76-0.76,2,0,2.76c0.38,0.38,0.88,0.57,1.38,0.57
		c0.5,0,1-0.19,1.38-0.57l6.49-6.49C86.14,16.65,86.14,15.42,85.38,14.66L85.38,14.66z M85.38,14.66"/>
	<path fill="#054387" d="M23.95,21.11l-6.49-6.49c-0.76-0.76-2-0.76-2.76,0c-0.76,0.76-0.76,2,0,2.76l6.49,6.49
		c0.38,0.38,0.88,0.57,1.38,0.57c0.5,0,1-0.19,1.38-0.57C24.72,23.11,24.72,21.87,23.95,21.11L23.95,21.11z M23.95,21.11"/>
	<path fill="#054387" d="M50.05,0c-1.08,0-1.95,0.87-1.95,1.95v12.73c0,1.08,0.87,1.95,1.95,1.95c1.08,0,1.95-0.87,1.95-1.95V1.95
		C52,0.87,51.13,0,50.05,0L50.05,0z M50.05,0"/>
	<path fill="#054387" d="M51.43,19.91c-0.36-0.36-0.87-0.57-1.38-0.57c-0.51,0-1.02,0.21-1.38,0.57c-0.36,0.36-0.57,0.87-0.57,1.38
		c0,0.52,0.21,1.02,0.57,1.38c0.36,0.37,0.87,0.57,1.38,0.57c0.51,0,1.02-0.21,1.38-0.57C51.79,22.31,52,21.8,52,21.29
		C52,20.78,51.79,20.27,51.43,19.91L51.43,19.91z M51.43,19.91"/>
</g>
</svg>
