<?xml version="1.0" encoding="utf-8"?>
<!-- Generator: Adobe Illustrator 17.0.0, SVG Export Plug-In . SVG Version: 6.00 Build 0)  -->
<!DOCTYPE svg PUBLIC "-//W3C//DTD SVG 1.1//EN" "http://www.w3.org/Graphics/SVG/1.1/DTD/svg11.dtd">
<svg version="1.1" id="Camada_1" xmlns="http://www.w3.org/2000/svg" xmlns:xlink="http://www.w3.org/1999/xlink" x="0px" y="0px"
	 width="100px" height="99.98px" viewBox="0 0 100 99.98" enable-background="new 0 0 100 99.98" xml:space="preserve">
<g>
	<path fill="#054387" d="M73.25,43.96c-0.48-1.21-1.85-1.81-3.06-1.33c-1.21,0.48-1.81,1.85-1.33,3.06c1.2,3.03,1.81,6.24,1.81,9.53
		c0,14.29-11.62,25.91-25.91,25.91c-14.29,0-25.91-11.62-25.91-25.91c0-14.29,11.62-25.91,25.91-25.91c3.3,0,6.51,0.61,9.54,1.82
		c1.21,0.48,2.58-0.11,3.06-1.32c0.48-1.21-0.11-2.58-1.32-3.07c-3.59-1.43-7.39-2.15-11.29-2.15c-16.89,0-30.63,13.74-30.63,30.63
		s13.74,30.63,30.63,30.63c16.89,0,30.63-13.74,30.63-30.63C75.39,51.33,74.67,47.55,73.25,43.96L73.25,43.96z M73.25,43.96"/>
	<path fill="#054387" d="M87.79,42.88c-0.36-1.25-1.66-1.98-2.92-1.62c-1.25,0.36-1.98,1.66-1.62,2.92
		c1.02,3.57,1.54,7.29,1.54,11.04c0,22.08-17.96,40.04-40.04,40.04c-22.08,0-40.04-17.96-40.04-40.04
		c0-22.08,17.96-40.04,40.04-40.04c3.76,0,7.48,0.52,11.06,1.55c1.25,0.36,2.56-0.36,2.92-1.62c0.36-1.25-0.36-2.56-1.62-2.92
		c-4-1.15-8.16-1.73-12.36-1.73C20.08,10.46,0,30.54,0,55.22s20.08,44.76,44.76,44.76c24.68,0,44.76-20.08,44.76-44.76
		C89.52,51.03,88.94,46.88,87.79,42.88L87.79,42.88z M87.79,42.88"/>
	<g>
		<path fill="#054387" d="M61.19,53.78c-0.11-1.3-1.26-2.25-2.56-2.14c-1.3,0.12-2.26,1.26-2.14,2.56c0.03,0.34,0.05,0.68,0.05,1.02
			c0,6.49-5.28,11.77-11.77,11.77c-6.49,0-11.78-5.28-11.78-11.77c0-6.49,5.28-11.77,11.78-11.77c0.36,0,0.72,0.02,1.06,0.05
			c1.3,0.12,2.45-0.84,2.57-2.13c0.12-1.3-0.84-2.45-2.13-2.57c-0.48-0.04-0.98-0.07-1.49-0.07c-9.09,0-16.49,7.4-16.49,16.49
			c0,9.09,7.4,16.49,16.49,16.49c9.09,0,16.49-7.4,16.49-16.49C61.25,54.74,61.23,54.25,61.19,53.78L61.19,53.78z M61.19,53.78"/>
		<path fill="#054387" d="M99.64,15.86c-0.73-1.77-2.45-2.91-4.36-2.91h-8.23V4.72c0-1.92-1.14-3.63-2.91-4.36
			C82.37-0.37,80.35,0.03,79,1.38L65.25,15.13c-1.34,1.34-2.07,3.11-2.07,5v13.35L44.01,52.66c-0.92,0.92-0.92,2.42,0,3.34
			c0.46,0.46,1.06,0.69,1.67,0.69c0.6,0,1.21-0.23,1.67-0.69l19.17-19.17h13.35c1.89,0,3.67-0.74,5-2.07L98.62,21
			C99.97,19.65,100.37,17.63,99.64,15.86L99.64,15.86z M67.9,20.13c0-0.63,0.25-1.22,0.69-1.67L82.33,4.72v9.61L67.9,28.77V20.13z
			 M81.53,31.41c-0.44,0.44-1.05,0.69-1.67,0.69h-8.63l14.44-14.44l9.61,0L81.53,31.41z M81.53,31.41"/>
	</g>
</g>
</svg>
