<?xml version="1.0" encoding="utf-8"?>
<!-- Generator: Adobe Illustrator 17.0.0, SVG Export Plug-In . SVG Version: 6.00 Build 0)  -->
<!DOCTYPE svg PUBLIC "-//W3C//DTD SVG 1.1//EN" "http://www.w3.org/Graphics/SVG/1.1/DTD/svg11.dtd">
<svg version="1.1" id="Camada_1" xmlns="http://www.w3.org/2000/svg" xmlns:xlink="http://www.w3.org/1999/xlink" x="0px" y="0px"
	 width="100px" height="106.8px" viewBox="0 0 100 106.8" enable-background="new 0 0 100 106.8" xml:space="preserve">
<g>
	<g>
		<path fill="#084487" d="M98.28,48.41c-0.87-1.11-2.47-1.31-3.58-0.44c-1.11,0.86-1.31,2.47-0.44,3.58c0.85,1.09,0.85,2.61,0,3.7
			c-6.23,7.99-14.3,14-23.38,17.63c4.77-5.11,7.7-11.96,7.7-19.48c0-7.49-2.9-14.32-7.63-19.42c5.25,2.11,10.18,5.01,14.6,8.63
			c0.55,0.45,1.09,0.91,1.63,1.39c1.05,0.93,2.66,0.83,3.6-0.22c0.93-1.05,0.83-2.66-0.22-3.6c-0.58-0.51-1.17-1.02-1.77-1.51
			C77.88,29.74,64.11,24.82,50,24.82c-18.99,0-36.59,8.6-48.28,23.59c-2.29,2.94-2.29,7.04,0,9.97C13.41,73.38,31.01,81.98,50,81.98
			s36.59-8.6,48.28-23.59C100.57,55.45,100.57,51.35,98.28,48.41L98.28,48.41z M5.74,55.25c-0.85-1.09-0.85-2.61,0-3.7
			c6.23-7.99,14.3-14,23.37-17.63c-4.77,5.11-7.69,11.96-7.69,19.48c0,7.52,2.92,14.37,7.69,19.48
			C20.03,69.25,11.97,63.24,5.74,55.25L5.74,55.25z M50.03,76.88c-0.01,0-0.02,0-0.03,0c-0.01,0-0.02,0-0.03,0
			C37.03,76.87,26.52,66.34,26.52,53.4c0-12.94,10.52-23.46,23.45-23.48c0.01,0,0.02,0,0.03,0c0.01,0,0.02,0,0.02,0
			c12.94,0.01,23.46,10.54,23.46,23.48C73.48,66.34,62.97,76.87,50.03,76.88L50.03,76.88z M50.03,76.88"/>
	</g>
	<path fill="#084487" d="M50,42.59c-5.96,0-10.81,4.85-10.81,10.81c0,5.96,4.85,10.81,10.81,10.81c5.96,0,10.81-4.85,10.81-10.81
		C60.81,47.44,55.96,42.59,50,42.59L50,42.59z M50,59.12c-3.15,0-5.72-2.57-5.72-5.72c0-3.15,2.57-5.72,5.72-5.72
		c3.15,0,5.72,2.57,5.72,5.72C55.72,56.55,53.15,59.12,50,59.12L50,59.12z M50,59.12"/>
	<path fill="#084487" d="M50,0c-1.41,0-2.55,1.14-2.55,2.55v9.56c0,1.41,1.14,2.55,2.55,2.55c1.41,0,2.55-1.14,2.55-2.55V2.55
		C52.55,1.14,51.41,0,50,0L50,0z M50,0"/>
	<path fill="#084487" d="M50,92.15c-1.41,0-2.55,1.14-2.55,2.55v9.56c0,1.41,1.14,2.55,2.55,2.55c1.41,0,2.55-1.14,2.55-2.55V94.7
		C52.55,93.29,51.41,92.15,50,92.15L50,92.15z M50,92.15"/>
	<path fill="#084487" d="M87.76,15.64c-1-1-2.61-1-3.6,0L79.4,20.4c-1,1-1,2.61,0,3.6c0.5,0.5,1.15,0.75,1.8,0.75
		c0.65,0,1.3-0.25,1.8-0.75l4.76-4.75C88.76,18.25,88.76,16.64,87.76,15.64L87.76,15.64z M87.76,15.64"/>
	<path fill="#084487" d="M20.6,82.8c-1-1-2.61-1-3.6,0l-4.76,4.75c-1,1-1,2.61,0,3.6c0.5,0.5,1.15,0.75,1.8,0.75
		c0.65,0,1.3-0.25,1.8-0.75l4.76-4.76C21.6,85.41,21.6,83.8,20.6,82.8L20.6,82.8z M20.6,82.8"/>
	<path fill="#084487" d="M20.6,20.4l-4.76-4.76c-1-1-2.61-1-3.6,0c-1,1-0.99,2.61,0,3.6L17,24c0.5,0.5,1.15,0.75,1.8,0.75
		c0.65,0,1.3-0.25,1.8-0.75C21.6,23,21.59,21.39,20.6,20.4L20.6,20.4z M20.6,20.4"/>
	<path fill="#084487" d="M87.76,87.56L83,82.8c-1-1-2.61-1-3.6,0c-1,1-1,2.61,0,3.6l4.76,4.76c0.5,0.5,1.15,0.75,1.8,0.75
		c0.65,0,1.3-0.25,1.8-0.75C88.76,90.16,88.76,88.55,87.76,87.56L87.76,87.56z M87.76,87.56"/>
</g>
</svg>
